<svg width="578" height="337" viewBox="0 0 578 337" fill="none" xmlns="http://www.w3.org/2000/svg">
<g clip-path="url(#clip0)">
<path d="M46.5839 196.884C55.798 196.884 63.2674 189.413 63.2674 180.199C63.2674 170.984 55.798 163.514 46.5839 163.514C37.3699 163.514 29.9004 170.984 29.9004 180.199C29.9004 189.413 37.3699 196.884 46.5839 196.884Z" fill="#F5F5F5"/>
<path d="M522.587 183.362C533.296 183.362 541.978 174.679 541.978 163.969C541.978 153.259 533.296 144.576 522.587 144.576C511.877 144.576 503.196 153.259 503.196 163.969C503.196 174.679 511.877 183.362 522.587 183.362Z" fill="#F5F5F5"/>
<path d="M513.16 131.614C518.292 131.614 522.452 127.453 522.452 122.321C522.452 117.189 518.292 113.028 513.16 113.028C508.028 113.028 503.868 117.189 503.868 122.321C503.868 127.453 508.028 131.614 513.16 131.614Z" fill="#F5F5F5"/>
<path d="M487.685 193.611C490.279 193.611 492.382 191.508 492.382 188.913C492.382 186.319 490.279 184.215 487.685 184.215C485.09 184.215 482.987 186.319 482.987 188.913C482.987 191.508 485.09 193.611 487.685 193.611Z" fill="#F5F5F5"/>
<path d="M439.478 153.356C441.693 153.356 443.488 151.56 443.488 149.346C443.488 147.131 441.693 145.335 439.478 145.335C437.264 145.335 435.468 147.131 435.468 149.346C435.468 151.56 437.264 153.356 439.478 153.356Z" fill="#F5F5F5"/>
<path d="M80.8784 173.034C84.4615 173.034 87.3661 170.13 87.3661 166.546C87.3661 162.963 84.4615 160.058 80.8784 160.058C77.2953 160.058 74.3906 162.963 74.3906 166.546C74.3906 170.13 77.2953 173.034 80.8784 173.034Z" fill="#F5F5F5"/>
<path d="M78.4033 204.283C83.2663 204.283 87.2085 200.34 87.2085 195.477C87.2085 190.613 83.2663 186.671 78.4033 186.671C73.5404 186.671 69.5981 190.613 69.5981 195.477C69.5981 200.34 73.5404 204.283 78.4033 204.283Z" fill="#F5F5F5"/>
<path d="M131.066 167.467C131.066 167.467 44.992 229.755 19.7009 258.597C-5.59015 287.44 9.53506 310.781 41.0317 321.802C72.5283 332.824 385.799 345.109 486.567 286.086C587.334 227.064 512.578 209.164 512.578 209.164L420.133 177.253C420.133 177.253 383.861 165.147 436.283 136.654C488.705 108.161 543.114 80.9189 562.812 65.0864C582.51 49.254 568.483 30.5716 526.812 25.9356C485.14 21.2997 268.016 13.5286 132.647 84.6228C-2.72219 155.717 131.797 144.982 131.797 144.982C131.797 144.982 177.681 135.403 131.066 167.467Z" fill="#F5F5F5"/>
<path d="M434.561 324.204C434.352 324.204 434.179 324.038 434.172 323.827C434.166 323.612 434.334 323.432 434.549 323.425C436.079 323.377 437.639 323.273 439.186 323.117C439.4 323.095 439.591 323.252 439.613 323.466C439.634 323.68 439.478 323.871 439.264 323.892C437.7 324.05 436.122 324.154 434.574 324.203C434.569 324.204 434.564 324.204 434.561 324.204ZM429.889 324.185C429.884 324.185 429.878 324.185 429.873 324.184C428.304 324.121 426.726 323.998 425.186 323.82C424.973 323.795 424.819 323.602 424.844 323.388C424.869 323.174 425.061 323.02 425.276 323.046C426.797 323.222 428.355 323.343 429.904 323.405C430.119 323.414 430.286 323.595 430.277 323.81C430.269 324.021 430.096 324.185 429.889 324.185ZM443.858 323.273C443.67 323.273 443.506 323.138 443.474 322.948C443.438 322.736 443.582 322.535 443.794 322.5C445.305 322.247 446.84 321.939 448.355 321.587C448.565 321.54 448.774 321.669 448.823 321.878C448.872 322.088 448.741 322.297 448.532 322.346C447.001 322.702 445.45 323.012 443.922 323.268C443.901 323.272 443.879 323.273 443.858 323.273ZM420.616 323.105C420.591 323.105 420.566 323.103 420.54 323.098C419.002 322.796 417.463 322.43 415.967 322.009C415.76 321.95 415.639 321.735 415.697 321.528C415.755 321.321 415.972 321.201 416.178 321.258C417.653 321.673 419.172 322.035 420.69 322.333C420.901 322.374 421.038 322.578 420.997 322.79C420.96 322.976 420.798 323.105 420.616 323.105ZM452.963 321.159C452.795 321.159 452.64 321.05 452.59 320.881C452.528 320.674 452.646 320.458 452.852 320.396C454.325 319.959 455.811 319.469 457.272 318.941C457.475 318.869 457.697 318.973 457.771 319.176C457.844 319.378 457.739 319.601 457.537 319.674C456.061 320.207 454.561 320.702 453.074 321.144C453.037 321.154 453 321.159 452.963 321.159ZM411.634 320.577C411.589 320.577 411.543 320.568 411.498 320.552C410.035 320.007 408.576 319.394 407.162 318.729C406.967 318.637 406.884 318.405 406.975 318.211C407.067 318.016 407.299 317.932 407.493 318.024C408.888 318.68 410.326 319.285 411.77 319.822C411.971 319.898 412.074 320.121 411.999 320.323C411.94 320.48 411.791 320.577 411.634 320.577ZM461.753 317.984C461.602 317.984 461.458 317.895 461.395 317.747C461.31 317.549 461.402 317.32 461.601 317.236C463.015 316.632 464.437 315.978 465.827 315.291C466.019 315.196 466.254 315.275 466.348 315.468C466.444 315.661 466.364 315.895 466.171 315.989C464.768 316.682 463.333 317.342 461.905 317.952C461.856 317.974 461.804 317.984 461.753 317.984ZM403.186 316.603C403.12 316.603 403.053 316.587 402.992 316.552C401.646 315.776 400.308 314.931 399.016 314.039C398.838 313.917 398.794 313.675 398.916 313.497C399.038 313.32 399.28 313.276 399.458 313.398C400.732 314.278 402.052 315.111 403.38 315.876C403.567 315.984 403.631 316.222 403.523 316.408C403.452 316.533 403.321 316.603 403.186 316.603ZM470.13 313.848C469.994 313.848 469.862 313.777 469.79 313.65C469.685 313.462 469.751 313.225 469.938 313.12C471.284 312.361 472.625 311.557 473.925 310.728C474.105 310.612 474.346 310.665 474.462 310.847C474.578 311.028 474.525 311.269 474.343 311.385C473.032 312.221 471.678 313.034 470.32 313.799C470.261 313.832 470.195 313.848 470.13 313.848ZM395.5 311.305C395.414 311.305 395.327 311.276 395.255 311.217C394.053 310.24 392.866 309.196 391.724 308.113C391.568 307.965 391.562 307.718 391.71 307.562C391.857 307.406 392.104 307.399 392.26 307.547C393.388 308.616 394.562 309.648 395.747 310.612C395.914 310.748 395.939 310.994 395.804 311.16C395.725 311.255 395.613 311.305 395.5 311.305ZM478.002 308.829C477.881 308.829 477.761 308.773 477.685 308.667C477.56 308.492 477.6 308.249 477.775 308.124C479.034 307.221 480.281 306.273 481.479 305.307C481.646 305.171 481.891 305.198 482.027 305.366C482.162 305.533 482.136 305.779 481.968 305.914C480.758 306.889 479.5 307.845 478.229 308.757C478.159 308.806 478.08 308.829 478.002 308.829ZM485.279 302.965C485.172 302.965 485.067 302.922 484.99 302.837C484.845 302.677 484.859 302.431 485.018 302.287C486.171 301.244 487.301 300.161 488.373 299.067C488.524 298.913 488.771 298.911 488.924 299.062C489.078 299.213 489.08 299.459 488.929 299.612C487.845 300.717 486.704 301.812 485.54 302.865C485.465 302.933 485.372 302.965 485.279 302.965ZM382.336 298.061C382.236 298.061 382.136 298.023 382.059 297.947C380.953 296.836 379.828 295.745 378.715 294.703C378.558 294.556 378.55 294.31 378.696 294.153C378.844 293.995 379.089 293.988 379.247 294.135C380.366 295.182 381.498 296.279 382.611 297.397C382.762 297.549 382.762 297.796 382.609 297.947C382.535 298.023 382.435 298.061 382.336 298.061ZM491.82 296.292C491.729 296.292 491.639 296.26 491.565 296.197C491.403 296.056 491.385 295.811 491.526 295.648C492.547 294.466 493.531 293.251 494.449 292.034C494.578 291.862 494.823 291.829 494.995 291.958C495.166 292.088 495.2 292.332 495.07 292.503C494.142 293.734 493.148 294.962 492.114 296.157C492.038 296.247 491.929 296.292 491.82 296.292ZM375.51 291.683C375.419 291.683 375.329 291.651 375.255 291.588C374.069 290.561 372.863 289.561 371.673 288.615C371.504 288.481 371.476 288.236 371.61 288.067C371.744 287.899 371.989 287.87 372.158 288.004C373.357 288.958 374.57 289.965 375.766 290.999C375.928 291.14 375.946 291.385 375.805 291.548C375.728 291.637 375.619 291.683 375.51 291.683ZM497.442 288.831C497.369 288.831 497.296 288.81 497.23 288.768C497.049 288.651 496.998 288.41 497.115 288.229C497.965 286.917 498.764 285.574 499.489 284.239C499.591 284.05 499.828 283.98 500.017 284.082C500.206 284.185 500.276 284.422 500.173 284.61C499.439 285.964 498.63 287.323 497.769 288.653C497.694 288.769 497.569 288.831 497.442 288.831ZM368.191 285.876C368.113 285.876 368.033 285.852 367.964 285.803C366.697 284.888 365.406 284.003 364.126 283.172C363.946 283.055 363.894 282.814 364.012 282.633C364.128 282.453 364.37 282.401 364.55 282.519C365.84 283.357 367.142 284.249 368.42 285.171C368.594 285.297 368.633 285.54 368.507 285.715C368.431 285.82 368.312 285.876 368.191 285.876ZM294.151 282.462C294.029 282.462 293.908 282.404 293.832 282.296C293.709 282.12 293.751 281.877 293.927 281.754C295.178 280.875 296.511 280.02 297.889 279.211C298.074 279.102 298.314 279.164 298.422 279.349C298.531 279.535 298.469 279.774 298.284 279.883C296.923 280.681 295.608 281.525 294.375 282.391C294.307 282.439 294.229 282.462 294.151 282.462ZM360.352 280.798C360.287 280.798 360.22 280.781 360.158 280.746C358.804 279.968 357.425 279.228 356.062 278.549C355.869 278.452 355.791 278.219 355.887 278.027C355.984 277.835 356.217 277.756 356.41 277.852C357.786 278.538 359.178 279.285 360.546 280.07C360.733 280.177 360.797 280.415 360.69 280.602C360.619 280.728 360.487 280.798 360.352 280.798ZM501.885 280.619C501.833 280.619 501.78 280.608 501.73 280.586C501.532 280.5 501.442 280.271 501.529 280.073C502.155 278.641 502.714 277.186 503.189 275.746C503.257 275.542 503.477 275.431 503.681 275.498C503.885 275.566 503.996 275.786 503.929 275.99C503.446 277.453 502.879 278.931 502.243 280.385C502.178 280.532 502.035 280.619 501.885 280.619ZM302.207 277.725C302.063 277.725 301.924 277.644 301.857 277.506C301.763 277.313 301.842 277.079 302.036 276.985C303.442 276.297 304.889 275.657 306.337 275.08C306.536 274.999 306.763 275.098 306.843 275.298C306.923 275.497 306.825 275.724 306.626 275.804C305.196 276.373 303.767 277.006 302.378 277.685C302.323 277.712 302.265 277.725 302.207 277.725ZM351.991 276.638C351.941 276.638 351.89 276.628 351.84 276.607C350.403 276.001 348.943 275.443 347.502 274.949C347.298 274.879 347.189 274.657 347.259 274.454C347.329 274.25 347.55 274.142 347.755 274.212C349.213 274.712 350.69 275.276 352.144 275.889C352.342 275.973 352.435 276.201 352.352 276.399C352.287 276.548 352.143 276.638 351.991 276.638ZM310.887 274.27C310.721 274.27 310.567 274.163 310.515 273.996C310.451 273.79 310.566 273.572 310.771 273.508C312.269 273.042 313.797 272.631 315.314 272.286C315.527 272.238 315.732 272.37 315.78 272.58C315.827 272.79 315.696 272.999 315.486 273.046C313.989 273.386 312.48 273.792 311.003 274.252C310.965 274.264 310.926 274.27 310.887 274.27ZM343.158 273.614C343.126 273.614 343.092 273.609 343.059 273.601C341.558 273.205 340.034 272.863 338.529 272.586C338.317 272.548 338.177 272.344 338.216 272.133C338.255 271.921 338.456 271.78 338.669 271.82C340.194 272.1 341.737 272.445 343.257 272.847C343.465 272.901 343.589 273.114 343.534 273.323C343.489 273.498 343.331 273.614 343.158 273.614ZM319.994 272.206C319.804 272.206 319.637 272.066 319.609 271.872C319.579 271.659 319.727 271.461 319.94 271.43C321.489 271.208 323.064 271.047 324.619 270.953C324.834 270.94 325.018 271.103 325.031 271.318C325.044 271.532 324.881 271.718 324.666 271.73C323.131 271.823 321.578 271.982 320.049 272.201C320.031 272.205 320.013 272.206 319.994 272.206ZM333.976 271.93C333.962 271.93 333.949 271.929 333.935 271.928C332.399 271.769 330.841 271.672 329.304 271.64C329.089 271.635 328.918 271.457 328.923 271.242C328.927 271.027 329.113 270.862 329.321 270.861C330.878 270.894 332.458 270.992 334.015 271.152C334.229 271.174 334.385 271.366 334.363 271.58C334.342 271.78 334.173 271.93 333.976 271.93ZM504.797 271.756C504.77 271.756 504.741 271.753 504.713 271.747C504.503 271.701 504.37 271.493 504.417 271.282C504.752 269.762 505.003 268.227 505.163 266.719C505.185 266.505 505.371 266.347 505.591 266.372C505.804 266.395 505.96 266.587 505.937 266.8C505.774 268.337 505.518 269.901 505.177 271.449C505.138 271.632 504.977 271.756 504.797 271.756ZM505.769 262.492C505.556 262.492 505.382 262.322 505.379 262.108C505.358 260.561 505.241 259.011 505.031 257.5C505.001 257.287 505.15 257.09 505.362 257.06C505.577 257.03 505.772 257.179 505.801 257.393C506.017 258.936 506.136 260.519 506.158 262.098C506.161 262.313 505.989 262.489 505.774 262.492C505.772 262.492 505.771 262.492 505.769 262.492ZM504.48 253.261C504.309 253.261 504.152 253.147 504.105 252.973C503.704 251.499 503.204 250.027 502.618 248.598C502.536 248.399 502.631 248.171 502.83 248.089C503.028 248.008 503.257 248.102 503.338 248.302C503.937 249.761 504.448 251.263 504.856 252.768C504.913 252.976 504.79 253.19 504.582 253.246C504.548 253.256 504.514 253.261 504.48 253.261ZM500.95 244.633C500.813 244.633 500.68 244.56 500.609 244.433C499.874 243.111 499.043 241.794 498.14 240.52C498.015 240.344 498.057 240.101 498.232 239.976C498.407 239.852 498.651 239.894 498.775 240.069C499.695 241.366 500.541 242.707 501.291 244.054C501.395 244.242 501.328 244.479 501.14 244.584C501.079 244.617 501.014 244.633 500.95 244.633ZM495.568 237.013C495.46 237.013 495.351 236.968 495.275 236.879C494.284 235.738 493.209 234.607 492.081 233.517C491.926 233.368 491.922 233.121 492.071 232.966C492.22 232.812 492.467 232.808 492.622 232.957C493.766 234.063 494.857 235.211 495.862 236.369C496.003 236.531 495.986 236.777 495.824 236.918C495.75 236.982 495.66 237.013 495.568 237.013ZM488.866 230.515C488.78 230.515 488.691 230.486 488.618 230.426C487.757 229.713 486.849 229.001 485.92 228.309C485.591 228.064 485.264 227.819 484.939 227.574C484.767 227.444 484.733 227.201 484.862 227.029C484.992 226.857 485.236 226.822 485.408 226.952C485.732 227.197 486.058 227.441 486.385 227.684C487.325 228.384 488.244 229.104 489.115 229.826C489.281 229.963 489.304 230.208 489.167 230.374C489.089 230.467 488.979 230.515 488.866 230.515ZM481.479 224.789C481.394 224.789 481.308 224.761 481.237 224.705C480.017 223.733 478.798 222.736 477.612 221.739C477.448 221.601 477.427 221.355 477.565 221.19C477.704 221.025 477.949 221.004 478.114 221.143C479.294 222.135 480.508 223.128 481.722 224.095C481.891 224.229 481.918 224.474 481.784 224.643C481.707 224.739 481.594 224.789 481.479 224.789ZM474.328 218.776C474.236 218.776 474.144 218.744 474.069 218.678C472.906 217.646 471.742 216.584 470.609 215.522C470.452 215.375 470.444 215.129 470.591 214.972C470.738 214.814 470.984 214.806 471.142 214.954C472.27 216.01 473.428 217.067 474.586 218.094C474.747 218.237 474.761 218.483 474.619 218.644C474.543 218.733 474.435 218.776 474.328 218.776ZM467.51 212.387C467.411 212.387 467.312 212.349 467.236 212.273C466.125 211.172 465.021 210.048 463.955 208.932C463.807 208.777 463.812 208.53 463.968 208.381C464.124 208.233 464.37 208.238 464.519 208.394C465.579 209.504 466.678 210.624 467.784 211.72C467.937 211.872 467.938 212.118 467.787 212.271C467.711 212.348 467.611 212.387 467.51 212.387ZM461.058 205.628C460.952 205.628 460.846 205.585 460.769 205.499C459.724 204.34 458.685 203.156 457.681 201.978C457.542 201.815 457.561 201.569 457.725 201.429C457.888 201.29 458.134 201.309 458.274 201.473C459.273 202.646 460.307 203.824 461.348 204.977C461.492 205.137 461.479 205.383 461.319 205.527C461.244 205.595 461.151 205.628 461.058 205.628ZM100.939 201.955C100.795 201.955 100.656 201.874 100.589 201.736C100.557 201.671 99.8039 200.109 98.8399 197.345C98.7692 197.142 98.8764 196.92 99.0798 196.849C99.2811 196.779 99.5057 196.886 99.5757 197.089C100.523 199.805 101.282 201.38 101.289 201.396C101.383 201.59 101.302 201.823 101.108 201.917C101.054 201.943 100.995 201.955 100.939 201.955ZM454.998 198.516C454.885 198.516 454.772 198.466 454.694 198.37C453.719 197.157 452.749 195.915 451.812 194.678C451.682 194.507 451.715 194.263 451.887 194.133C452.057 194.002 452.302 194.037 452.432 194.208C453.365 195.439 454.33 196.675 455.301 197.882C455.436 198.05 455.409 198.295 455.242 198.43C455.17 198.488 455.084 198.516 454.998 198.516ZM97.8212 193.141C97.6498 193.141 97.4931 193.027 97.4457 192.855C97.0344 191.353 96.6647 189.816 96.3482 188.284C96.3052 188.073 96.4401 187.867 96.6508 187.824C96.8608 187.78 97.0679 187.916 97.111 188.127C97.4245 189.642 97.7891 191.163 98.1975 192.649C98.2543 192.857 98.1318 193.07 97.9248 193.127C97.8897 193.136 97.8547 193.141 97.8212 193.141ZM449.354 191.068C449.232 191.068 449.112 191.011 449.036 190.904C448.136 189.643 447.239 188.347 446.371 187.052C446.251 186.874 446.299 186.632 446.478 186.512C446.656 186.392 446.898 186.44 447.018 186.619C447.882 187.907 448.775 189.196 449.671 190.452C449.795 190.627 449.755 190.871 449.58 190.996C449.511 191.044 449.432 191.068 449.354 191.068ZM95.9304 183.988C95.7393 183.988 95.5723 183.847 95.5453 183.653C95.3273 182.098 95.1603 180.525 95.0473 178.979C95.0313 178.764 95.1924 178.578 95.4068 178.562C95.6292 178.548 95.8079 178.707 95.8239 178.922C95.9355 180.451 96.1017 182.007 96.3168 183.545C96.3467 183.758 96.198 183.954 95.9851 183.984C95.9661 183.987 95.9479 183.988 95.9304 183.988ZM444.148 183.307C444.019 183.307 443.892 183.243 443.818 183.125C442.986 181.802 442.166 180.456 441.381 179.124C441.272 178.939 441.334 178.699 441.519 178.591C441.703 178.481 441.943 178.543 442.052 178.729C442.834 180.054 443.65 181.393 444.478 182.71C444.593 182.892 444.538 183.132 444.356 183.246C444.291 183.287 444.219 183.307 444.148 183.307ZM439.401 175.257C439.264 175.257 439.131 175.184 439.06 175.055C438.306 173.687 437.566 172.296 436.859 170.92C436.76 170.729 436.836 170.494 437.027 170.396C437.218 170.297 437.453 170.373 437.551 170.564C438.255 171.934 438.992 173.318 439.743 174.68C439.846 174.868 439.778 175.105 439.589 175.209C439.53 175.24 439.465 175.257 439.401 175.257ZM95.2559 174.669C95.0415 174.669 94.8672 174.497 94.8665 174.282L94.8657 174.053C94.8657 172.558 94.9175 171.054 95.0189 169.583C95.0334 169.368 95.2259 169.208 95.4345 169.221C95.6489 169.236 95.8108 169.422 95.7962 169.637C95.6956 171.09 95.6445 172.576 95.6445 174.054L95.6452 174.279C95.6467 174.494 95.4732 174.669 95.258 174.671C95.2566 174.669 95.2566 174.669 95.2559 174.669ZM435.128 166.944C434.983 166.944 434.843 166.863 434.777 166.723C434.104 165.315 433.444 163.884 432.817 162.467C432.731 162.27 432.819 162.041 433.016 161.953C433.213 161.865 433.442 161.955 433.53 162.152C434.155 163.561 434.811 164.986 435.48 166.387C435.573 166.581 435.491 166.814 435.297 166.906C435.242 166.932 435.185 166.944 435.128 166.944ZM95.9048 165.352C95.8859 165.352 95.8677 165.351 95.848 165.349C95.635 165.317 95.4877 165.12 95.5191 164.907C95.7452 163.352 96.0339 161.796 96.3774 160.282C96.4255 160.073 96.6326 159.94 96.8433 159.989C97.0533 160.036 97.1846 160.245 97.1372 160.455C96.7981 161.949 96.5137 163.484 96.2899 165.019C96.2622 165.212 96.0959 165.352 95.9048 165.352ZM431.341 158.398C431.188 158.398 431.043 158.307 430.981 158.156C430.391 156.712 429.814 155.245 429.27 153.794C429.195 153.593 429.296 153.368 429.497 153.292C429.697 153.217 429.922 153.318 429.999 153.52C430.541 154.963 431.114 156.423 431.702 157.861C431.784 158.06 431.689 158.287 431.489 158.368C431.441 158.389 431.391 158.398 431.341 158.398ZM97.9707 156.246C97.932 156.246 97.8934 156.24 97.854 156.228C97.6491 156.164 97.5346 155.945 97.5988 155.74C98.064 154.25 98.5971 152.759 99.1819 151.31C99.2628 151.11 99.4918 151.014 99.6887 151.095C99.8885 151.175 99.9848 151.403 99.9045 151.602C99.3277 153.031 98.802 154.502 98.3419 155.972C98.2901 156.139 98.137 156.246 97.9707 156.246ZM428.052 149.648C427.89 149.648 427.739 149.547 427.684 149.385C427.178 147.914 426.688 146.416 426.225 144.932C426.161 144.726 426.276 144.508 426.481 144.444C426.688 144.38 426.905 144.495 426.969 144.7C427.429 146.177 427.917 147.668 428.42 149.132C428.49 149.335 428.382 149.557 428.179 149.627C428.137 149.642 428.094 149.648 428.052 149.648ZM101.465 147.588C101.407 147.588 101.347 147.575 101.292 147.546C101.099 147.45 101.021 147.216 101.117 147.024C101.814 145.631 102.579 144.246 103.388 142.905C103.499 142.722 103.737 142.662 103.922 142.773C104.106 142.885 104.165 143.124 104.054 143.308C103.255 144.631 102.501 145.998 101.813 147.372C101.745 147.509 101.608 147.588 101.465 147.588ZM425.27 140.723C425.1 140.723 424.943 140.61 424.895 140.438C424.475 138.937 424.072 137.413 423.696 135.908C423.645 135.699 423.772 135.488 423.98 135.436C424.19 135.383 424.4 135.511 424.453 135.72C424.826 137.218 425.227 138.735 425.646 140.228C425.704 140.435 425.583 140.65 425.376 140.708C425.341 140.718 425.305 140.723 425.27 140.723ZM106.287 139.592C106.209 139.592 106.131 139.569 106.062 139.52C105.887 139.395 105.846 139.152 105.971 138.977C106.868 137.717 107.833 136.464 108.838 135.252C108.975 135.086 109.221 135.063 109.386 135.201C109.552 135.338 109.575 135.584 109.437 135.749C108.445 136.947 107.493 138.185 106.605 139.429C106.529 139.535 106.409 139.592 106.287 139.592ZM112.282 132.461C112.181 132.461 112.08 132.421 112.004 132.343C111.853 132.19 111.856 131.943 112.01 131.792C113.105 130.724 114.293 129.679 115.541 128.689C115.71 128.555 115.954 128.583 116.089 128.752C116.223 128.92 116.194 129.165 116.026 129.299C114.798 130.273 113.63 131.3 112.554 132.349C112.478 132.424 112.38 132.461 112.282 132.461ZM423.011 131.651C422.832 131.651 422.67 131.527 422.631 131.344C422.299 129.828 421.986 128.284 421.698 126.751C421.659 126.54 421.798 126.336 422.01 126.296C422.226 126.257 422.425 126.396 422.465 126.608C422.751 128.133 423.063 129.67 423.392 131.178C423.438 131.388 423.306 131.596 423.096 131.642C423.066 131.648 423.038 131.651 423.011 131.651ZM119.567 126.654C119.44 126.654 119.316 126.592 119.241 126.478C119.123 126.298 119.173 126.056 119.352 125.938C120.618 125.106 121.972 124.29 123.376 123.512C123.563 123.408 123.801 123.475 123.905 123.664C124.009 123.853 123.941 124.09 123.753 124.194C122.366 124.962 121.028 125.768 119.78 126.589C119.715 126.633 119.641 126.654 119.567 126.654ZM421.289 122.46C421.1 122.46 420.934 122.323 420.904 122.131C420.663 120.588 420.443 119.025 420.252 117.488C420.226 117.275 420.377 117.08 420.591 117.054C420.801 117.027 420.998 117.178 421.025 117.392C421.216 118.922 421.434 120.475 421.674 122.01C421.707 122.223 421.562 122.422 421.35 122.455C421.329 122.459 421.308 122.46 421.289 122.46ZM127.723 122.114C127.577 122.114 127.437 122.032 127.371 121.892C127.278 121.697 127.361 121.465 127.555 121.373C128.914 120.728 130.358 120.089 131.847 119.475C132.047 119.393 132.275 119.487 132.356 119.686C132.438 119.885 132.344 120.113 132.145 120.195C130.668 120.804 129.236 121.437 127.889 122.076C127.835 122.102 127.778 122.114 127.723 122.114ZM136.355 118.533C136.196 118.533 136.048 118.435 135.989 118.277C135.916 118.075 136.02 117.851 136.222 117.778C137.63 117.264 139.121 116.749 140.654 116.247C140.861 116.18 141.078 116.292 141.146 116.496C141.213 116.7 141.101 116.92 140.897 116.987C139.371 117.487 137.889 117.999 136.489 118.509C136.445 118.526 136.4 118.533 136.355 118.533ZM145.238 115.612C145.07 115.612 144.916 115.503 144.865 115.334C144.803 115.128 144.921 114.911 145.127 114.849C146.556 114.422 148.028 113.998 149.628 113.553C149.838 113.495 150.05 113.617 150.108 113.824C150.166 114.031 150.044 114.246 149.837 114.303C148.241 114.747 146.773 115.169 145.349 115.595C145.312 115.607 145.275 115.612 145.238 115.612ZM420.135 113.18C419.936 113.18 419.766 113.029 419.748 112.827C419.604 111.259 419.487 109.684 419.4 108.15C419.388 107.935 419.552 107.751 419.767 107.739C419.981 107.728 420.166 107.89 420.177 108.105C420.264 109.632 420.381 111.196 420.524 112.756C420.543 112.97 420.386 113.16 420.171 113.18C420.159 113.18 420.147 113.18 420.135 113.18ZM154.249 113.101C154.076 113.101 153.918 112.985 153.872 112.81C153.818 112.602 153.942 112.389 154.15 112.334C155.652 111.94 157.163 111.553 158.684 111.168C158.892 111.115 159.104 111.241 159.157 111.45C159.209 111.658 159.083 111.87 158.875 111.923C157.357 112.307 155.847 112.695 154.349 113.088C154.315 113.097 154.281 113.101 154.249 113.101ZM172.382 108.541C172.208 108.541 172.049 108.423 172.005 108.247C171.952 108.038 172.079 107.827 172.287 107.774C173.797 107.391 175.307 107.004 176.815 106.609C177.024 106.554 177.236 106.679 177.291 106.887C177.346 107.095 177.222 107.308 177.013 107.362C175.503 107.758 173.99 108.146 172.478 108.528C172.445 108.537 172.413 108.541 172.382 108.541ZM181.437 106.16C181.267 106.16 181.11 106.047 181.062 105.874C181.005 105.667 181.127 105.452 181.334 105.395C182.894 104.964 184.405 104.533 185.825 104.115C186.033 104.054 186.248 104.172 186.308 104.378C186.369 104.585 186.251 104.801 186.045 104.862C184.621 105.282 183.106 105.714 181.541 106.146C181.506 106.155 181.471 106.16 181.437 106.16ZM419.608 103.843C419.396 103.843 419.223 103.674 419.219 103.461C419.204 102.701 419.197 101.955 419.197 101.225C419.197 100.406 419.206 99.5795 419.225 98.7693C419.229 98.5542 419.398 98.3755 419.624 98.3886C419.839 98.3937 420.009 98.5717 420.004 98.7868C419.985 99.5912 419.977 100.412 419.977 101.225C419.977 101.95 419.984 102.691 419.999 103.445C420.003 103.661 419.832 103.838 419.617 103.842C419.613 103.843 419.611 103.843 419.608 103.843ZM190.406 103.507C190.241 103.507 190.087 103.401 190.035 103.235C189.97 103.03 190.083 102.811 190.288 102.746C191.809 102.26 193.298 101.763 194.712 101.269C194.917 101.198 195.138 101.306 195.209 101.508C195.28 101.711 195.172 101.934 194.97 102.004C193.549 102.501 192.053 103 190.525 103.488C190.484 103.501 190.444 103.507 190.406 103.507ZM199.228 100.415C199.072 100.415 198.925 100.32 198.865 100.165C198.788 99.9646 198.887 99.7392 199.088 99.6612C200.572 99.088 202.023 98.4951 203.401 97.9C203.598 97.814 203.827 97.9058 203.913 98.1035C203.998 98.3011 203.907 98.5301 203.709 98.6154C202.322 99.2149 200.862 99.8114 199.369 100.388C199.323 100.406 199.276 100.415 199.228 100.415ZM207.804 96.7011C207.659 96.7011 207.52 96.6201 207.453 96.4816C207.359 96.2883 207.439 96.055 207.633 95.9609C209.051 95.271 210.441 94.5505 211.763 93.8205C211.952 93.7162 212.189 93.7847 212.292 93.9729C212.396 94.161 212.328 94.3981 212.14 94.5024C210.806 95.2389 209.405 95.9653 207.974 96.6617C207.919 96.688 207.861 96.7011 207.804 96.7011ZM419.835 94.4994C419.826 94.4994 419.816 94.4987 419.806 94.498C419.592 94.4819 419.431 94.2952 419.447 94.0808C419.569 92.4247 419.736 90.8524 419.944 89.4069C419.975 89.194 420.171 89.0467 420.384 89.0766C420.597 89.1072 420.745 89.3041 420.715 89.5178C420.51 90.945 420.344 92.4998 420.223 94.1384C420.209 94.3434 420.037 94.4994 419.835 94.4994ZM223.503 86.6627C223.392 86.6627 223.283 86.616 223.205 86.5249C223.066 86.3608 223.087 86.115 223.251 85.9757C224.437 84.9679 225.585 83.9141 226.663 82.8421C226.814 82.6904 227.061 82.6911 227.213 82.8435C227.365 82.9959 227.364 83.2424 227.212 83.3949C226.12 84.4815 224.958 85.5498 223.755 86.5701C223.682 86.6321 223.592 86.6627 223.503 86.6627ZM421.021 85.2297C421.006 85.2297 420.99 85.229 420.975 85.2268C420.761 85.202 420.608 85.008 420.634 84.7943C420.81 83.2898 420.932 81.7321 420.998 80.1649C421.008 79.9498 421.192 79.7842 421.404 79.7923C421.619 79.801 421.786 79.9826 421.776 80.1977C421.709 81.7846 421.585 83.362 421.407 84.8855C421.384 85.0838 421.216 85.2297 421.021 85.2297ZM230.102 80.0854C230.013 80.0854 229.923 80.0548 229.85 79.9928C229.686 79.8535 229.666 79.6078 229.805 79.4437C230.805 78.2681 231.763 77.0378 232.652 75.7886C232.777 75.6136 233.02 75.572 233.196 75.6974C233.371 75.8221 233.411 76.065 233.287 76.2407C232.385 77.5082 231.413 78.756 230.399 79.9491C230.322 80.0388 230.212 80.0854 230.102 80.0854ZM421.421 75.898C421.211 75.898 421.037 75.731 421.031 75.5187C420.99 73.9778 420.893 72.4157 420.746 70.8777C420.726 70.6633 420.882 70.4737 421.096 70.4525C421.321 70.4314 421.501 70.5896 421.521 70.8033C421.67 72.3588 421.767 73.9384 421.81 75.4969C421.816 75.712 421.646 75.8907 421.432 75.8965C421.428 75.898 421.424 75.898 421.421 75.898ZM235.6 72.5404C235.525 72.5404 235.449 72.5193 235.383 72.4733C235.204 72.353 235.158 72.1109 235.278 71.9329L237.891 68.0583C238.011 67.8797 238.254 67.833 238.431 67.9533C238.61 68.0736 238.657 68.3158 238.536 68.4937L235.923 72.369C235.848 72.4806 235.726 72.5404 235.6 72.5404ZM420.53 66.594C420.343 66.594 420.178 66.459 420.147 66.268C419.894 64.7372 419.586 63.2036 419.232 61.7108C419.183 61.5015 419.312 61.2914 419.521 61.2418C419.73 61.193 419.94 61.3221 419.99 61.5306C420.348 63.041 420.66 64.5914 420.915 66.1403C420.95 66.3526 420.807 66.5531 420.594 66.5881C420.573 66.5925 420.551 66.594 420.53 66.594ZM240.83 64.7941C240.755 64.7941 240.679 64.7722 240.612 64.727C240.434 64.606 240.388 64.3638 240.509 64.1859C241.39 62.8863 242.268 61.5992 243.145 60.3244C243.267 60.1472 243.51 60.1027 243.687 60.2245C243.864 60.3463 243.909 60.5891 243.787 60.7664C242.911 62.0397 242.034 63.3261 241.153 64.6242C241.078 64.7343 240.956 64.7941 240.83 64.7941ZM418.371 57.5043C418.205 57.5043 418.052 57.3979 417.999 57.2316C417.535 55.7526 417.012 54.2795 416.446 52.8545C416.367 52.6547 416.465 52.4279 416.664 52.3484C416.864 52.2696 417.091 52.3666 417.17 52.5665C417.742 54.0097 418.271 55.5003 418.742 56.9975C418.806 57.2024 418.693 57.4212 418.488 57.4861C418.449 57.4985 418.41 57.5043 418.371 57.5043ZM246.132 57.0952C246.054 57.0952 245.976 57.0719 245.908 57.0245C245.732 56.9005 245.69 56.6577 245.813 56.4819C246.746 55.1532 247.659 53.8711 248.527 52.6715C248.653 52.4972 248.897 52.4578 249.071 52.584C249.245 52.7101 249.285 52.9537 249.159 53.128C248.292 54.3255 247.382 55.6046 246.45 56.9297C246.375 57.0376 246.254 57.0952 246.132 57.0952ZM251.615 49.5276C251.534 49.5276 251.452 49.5021 251.382 49.4496C251.21 49.3205 251.176 49.0762 251.305 48.9041C252.27 47.6191 253.231 46.3706 254.159 45.1936C254.293 45.0244 254.537 44.9959 254.706 45.1286C254.876 45.2621 254.904 45.5071 254.771 45.6756C253.847 46.8483 252.889 48.0917 251.927 49.3715C251.851 49.4744 251.734 49.5276 251.615 49.5276ZM414.923 48.826C414.778 48.826 414.64 48.7458 414.572 48.6073C413.895 47.218 413.158 45.8419 412.381 44.5161C412.272 44.3308 412.334 44.0916 412.519 43.983C412.705 43.8743 412.944 43.9363 413.052 44.1223C413.84 45.4648 414.587 46.8592 415.273 48.266C415.367 48.4592 415.286 48.6926 415.093 48.7867C415.038 48.8129 414.979 48.826 414.923 48.826ZM257.407 42.1955C257.32 42.1955 257.231 42.1656 257.158 42.1051C256.993 41.9673 256.971 41.7215 257.108 41.5567C258.131 40.333 259.16 39.1399 260.17 38.0102C260.313 37.8498 260.56 37.8367 260.719 37.9796C260.88 38.1233 260.894 38.3691 260.751 38.5295C259.747 39.6526 258.723 40.8391 257.706 42.0562C257.63 42.1481 257.519 42.1955 257.407 42.1955ZM410.2 40.7749C410.076 40.7749 409.955 40.7166 409.879 40.6079C408.998 39.3434 408.056 38.0985 407.081 36.9076C406.944 36.7413 406.969 36.4956 407.135 36.3592C407.301 36.2221 407.547 36.2476 407.684 36.4139C408.672 37.6201 409.626 38.881 410.519 40.1623C410.641 40.3388 410.598 40.5817 410.422 40.7049C410.354 40.7523 410.276 40.7749 410.2 40.7749ZM263.638 35.2354C263.54 35.2354 263.443 35.1989 263.367 35.126C263.213 34.9765 263.208 34.73 263.357 34.5754C264.464 33.429 265.585 32.3168 266.69 31.2689C266.846 31.1208 267.093 31.1274 267.241 31.2835C267.389 31.4395 267.382 31.686 267.226 31.8341C266.129 32.874 265.017 33.9781 263.918 35.1165C263.842 35.1953 263.74 35.2354 263.638 35.2354ZM404.286 33.5559C404.184 33.5559 404.081 33.5158 404.004 33.4355C402.945 32.3285 401.824 31.2419 400.672 30.2078C400.513 30.0641 400.5 29.8176 400.643 29.6579C400.788 29.4982 401.034 29.4851 401.194 29.6288C402.359 30.676 403.494 31.7765 404.567 32.8973C404.716 33.0527 404.711 33.2992 404.555 33.4479C404.48 33.5194 404.383 33.5559 404.286 33.5559ZM270.424 28.8083C270.315 28.8083 270.206 28.7624 270.129 28.6727C269.989 28.5093 270.008 28.2636 270.171 28.1235C271.366 27.096 272.589 26.0998 273.805 25.1634C273.976 25.0322 274.221 25.0635 274.351 25.2342C274.482 25.4048 274.451 25.6491 274.28 25.7804C273.076 26.7088 271.864 27.6955 270.678 28.7143C270.605 28.777 270.515 28.8083 270.424 28.8083ZM397.349 27.3148C397.266 27.3148 397.182 27.2878 397.111 27.2331C395.902 26.2953 394.636 25.3815 393.348 24.5173C393.169 24.397 393.121 24.1556 393.241 23.9769C393.361 23.7983 393.602 23.7501 393.781 23.8705C395.085 24.7448 396.365 25.6688 397.589 26.6176C397.759 26.7496 397.789 26.9939 397.657 27.1638C397.581 27.263 397.465 27.3148 397.349 27.3148ZM277.82 23.1186C277.695 23.1186 277.574 23.0595 277.498 22.9487C277.377 22.7707 277.422 22.5286 277.6 22.4075C278.893 21.5237 280.223 20.6726 281.55 19.8784C281.734 19.7676 281.974 19.8281 282.084 20.0126C282.195 20.1971 282.135 20.4363 281.95 20.5472C280.636 21.3341 279.32 22.1764 278.039 23.0515C277.972 23.096 277.896 23.1186 277.82 23.1186ZM389.605 22.1115C389.538 22.1115 389.471 22.0947 389.409 22.0589C388.094 21.2954 386.719 20.553 385.323 19.8529C385.13 19.7566 385.053 19.5225 385.149 19.33C385.245 19.1382 385.48 19.0602 385.672 19.1565C387.083 19.8638 388.471 20.6135 389.8 21.3851C389.986 21.493 390.049 21.7315 389.941 21.9175C389.869 22.0414 389.739 22.1115 389.605 22.1115ZM285.827 18.3273C285.686 18.3273 285.55 18.2507 285.48 18.1172C285.381 17.9262 285.456 17.6914 285.647 17.5922C287.026 16.8768 288.448 16.1934 289.875 15.5619C290.071 15.4736 290.301 15.5633 290.389 15.7603C290.475 15.9572 290.387 16.1869 290.19 16.2744C288.779 16.9001 287.37 17.5761 286.005 18.2843C285.948 18.3134 285.887 18.3273 285.827 18.3273ZM381.266 17.9218C381.214 17.9218 381.162 17.9116 381.111 17.8897C379.714 17.2852 378.262 16.7032 376.797 16.1592C376.595 16.084 376.493 15.8602 376.568 15.6582C376.643 15.4561 376.868 15.354 377.068 15.4284C378.546 15.9776 380.01 16.5646 381.42 17.1743C381.618 17.2596 381.708 17.4893 381.623 17.6863C381.56 17.8336 381.417 17.9218 381.266 17.9218ZM372.518 14.6671C372.48 14.6671 372.44 14.6612 372.401 14.6488C370.949 14.1887 369.446 13.7497 367.936 13.3442C367.728 13.2888 367.605 13.0751 367.66 12.8672C367.717 12.6594 367.931 12.5362 368.137 12.5923C369.659 13.0007 371.173 13.4426 372.636 13.9064C372.841 13.9714 372.955 14.1901 372.89 14.3951C372.837 14.5606 372.684 14.6671 372.518 14.6671ZM294.354 14.546C294.197 14.546 294.048 14.449 293.989 14.2922C293.914 14.091 294.016 13.8663 294.218 13.7912C295.663 13.2516 297.156 12.7433 298.656 12.2794C298.861 12.216 299.08 12.3312 299.144 12.5369C299.207 12.7425 299.092 12.9606 298.886 13.024C297.401 13.4835 295.921 13.9874 294.49 14.5212C294.445 14.538 294.399 14.546 294.354 14.546ZM363.502 12.243C363.473 12.243 363.445 12.2401 363.417 12.2335C361.93 11.9002 360.396 11.5866 358.856 11.3022C358.645 11.2636 358.505 11.0601 358.544 10.8486C358.583 10.6379 358.782 10.4978 358.998 10.5365C360.547 10.8224 362.092 11.1381 363.587 11.4736C363.797 11.5203 363.929 11.7289 363.882 11.9389C363.841 12.1197 363.681 12.243 363.502 12.243ZM303.266 11.7865C303.091 11.7865 302.932 11.6683 302.889 11.4918C302.836 11.2833 302.963 11.0718 303.172 11.0193C304.664 10.6466 306.202 10.3031 307.747 9.99975C307.957 9.95673 308.163 10.096 308.205 10.3068C308.246 10.5175 308.108 10.7225 307.898 10.764C306.366 11.0652 304.84 11.4051 303.362 11.7748C303.329 11.7828 303.297 11.7865 303.266 11.7865ZM354.32 10.5431C354.301 10.5431 354.282 10.5416 354.263 10.5387C352.758 10.3155 351.204 10.1106 349.645 9.93047C349.431 9.90568 349.278 9.71242 349.303 9.49875C349.328 9.28507 349.527 9.13338 349.734 9.15672C351.301 9.33758 352.863 9.54323 354.377 9.76785C354.589 9.7992 354.736 9.99757 354.705 10.2105C354.677 10.4045 354.511 10.5431 354.32 10.5431ZM312.421 9.98152C312.231 9.98152 312.064 9.84223 312.036 9.64898C312.005 9.43603 312.152 9.2384 312.364 9.20704C313.88 8.98315 315.443 8.78698 317.013 8.62508C317.224 8.6032 317.418 8.75854 317.44 8.97221C317.462 9.18589 317.307 9.37769 317.092 9.39957C315.535 9.56073 313.981 9.75545 312.478 9.97788C312.46 9.98006 312.44 9.98152 312.421 9.98152ZM345.041 9.45937C345.03 9.45937 345.018 9.45864 345.006 9.45791C343.441 9.31716 341.876 9.1961 340.356 9.09838C340.142 9.08452 339.979 8.89929 339.992 8.68488C340.006 8.47048 340.197 8.30566 340.406 8.32098C341.933 8.41943 343.503 8.54122 345.075 8.68196C345.289 8.70093 345.447 8.89054 345.428 9.10494C345.411 9.30695 345.241 9.45937 345.041 9.45937ZM321.705 9.01524C321.501 9.01524 321.33 8.85626 321.316 8.65061C321.303 8.4362 321.466 8.25097 321.68 8.23711C323.209 8.14012 324.783 8.07011 326.36 8.02781C326.556 8.02125 326.753 8.19117 326.759 8.4063C326.765 8.62144 326.595 8.80011 326.38 8.80594C324.813 8.84751 323.248 8.91752 321.73 9.01378C321.722 9.01451 321.714 9.01524 321.705 9.01524ZM335.715 8.86209C335.71 8.86209 335.704 8.86209 335.7 8.86136C334.131 8.80375 332.564 8.76948 331.04 8.75927C330.825 8.75781 330.652 8.58205 330.654 8.36765C330.655 8.15324 330.829 7.98041 331.043 7.98041C331.044 7.98041 331.045 7.98041 331.046 7.98041C332.577 7.99062 334.153 8.02489 335.729 8.08251C335.944 8.09053 336.112 8.27139 336.104 8.48579C336.096 8.69655 335.923 8.86209 335.715 8.86209Z" fill="#444444"/>
<path d="M300.06 205.232C300.06 205.232 304.311 173.659 300.06 141.343C296.051 110.871 297.591 105.226 308.366 93.3238C319.142 81.4221 359.732 86.7458 364.895 97.0051C369.383 105.925 385.769 127.427 387.376 161.44C388.982 195.454 386.889 197.925 386.889 197.925L300.06 205.232Z" fill="#081647"/>
<path d="M357.741 145.05C357.741 145.05 369.35 173.824 360.973 184.596L350.179 174.291L347.71 157.194L357.741 145.05Z" fill="#000E2D"/>
<path d="M317.103 152.894C317.103 152.894 312.976 185.818 326.37 191.93L336.661 176.442L332.852 159.515L317.103 152.894Z" fill="#000E2D"/>
<path d="M325.978 179.224L330.638 161.44L353.188 150.516C353.188 150.516 352.02 162.712 357.742 179.224H325.978Z" fill="#C36BE0"/>
<path d="M318.218 182.364L327.448 175.574L361.044 173.489L363.62 177.943L352.309 246.471L359.805 321.286L357.608 321.654C356.499 321.84 355.384 321.984 354.266 322.086L303.594 326.713L318.218 182.364Z" fill="#00C4B4"/>
<path d="M325.675 183.106L324.653 174.816C324.473 173.356 325.712 172.052 327.403 171.92L357.825 169.544C358.649 169.48 359.365 170.028 359.39 170.743L359.733 180.605L350.924 193.525L341.868 196.015H330.797L324.429 190.138L325.675 183.106Z" fill="#00C4B4"/>
<path d="M303.824 188.435C303.824 188.435 292.712 195.661 289.792 208.713C287.496 218.973 284.675 273.402 284.675 273.402L270.2 293.976L275.547 308.848H277.297C283.455 309.271 289.661 309.303 294.659 305.783L299.497 302.375L308.367 289.598L303.824 188.435Z" fill="#D6E5F8"/>
<path d="M322.665 178.866L303.824 188.435L299.378 202.622L295.416 243.739L302.875 291.945L291.324 327.604L312.502 325.989L312.89 308.821L315.143 232.183L317.357 183.364L322.665 178.866Z" fill="#D6E5F8"/>
<path d="M387.304 186.086L373.699 180.689L359.357 172.53L359.266 174.917C361.022 177.837 361.628 181.276 360.973 184.597L349.038 245.049L351.745 289.215L355.943 321.934L393.101 315.709L380.636 287.233L387.629 226.237L387.304 186.086Z" fill="#D6E5F8"/>
<path d="M287.102 309.043C287.102 309.043 295.032 307.493 295.197 301.295H293.031C293.031 301.295 290.662 307.043 287.102 309.043Z" fill="#F0F6FF"/>
<path opacity="0.5" d="M349.038 245.048C349.038 245.048 354.415 243.459 360.767 230.515C360.767 230.515 365.734 218.732 363.852 207.329H366.708C366.708 207.329 369.074 190.178 365.004 179.402L358.215 210.687L349.038 245.048Z" fill="#9EC7F3"/>
<path d="M193.746 170.06L194.126 159.782C194.126 159.782 215.971 160.526 224.57 146.597L227.261 170.827L223.579 178.335L202.909 195.057L191.612 183.346L193.746 170.06Z" fill="#C36BE0"/>
<path d="M226.01 164.097C226.01 164.097 248.032 173.502 261.404 175.844C262.151 175.974 262.83 176.329 263.335 176.863C266.085 179.765 274.756 189.906 275.2 202.858C275.729 218.262 277.845 283.856 277.845 283.856C277.845 283.856 277.845 297.273 260.92 299.261L267.16 329.026C267.16 329.026 238.391 330.371 214.794 330.686C191.612 330.995 166.747 330.995 166.747 330.995C166.747 330.995 169.415 259.507 164.655 236.648L146.671 261.494L122.34 231.679L162.544 183.48C162.544 183.48 164.655 178.011 187.927 174.532L193.746 170.06C193.746 170.06 195.332 225.715 196.919 236.648C196.919 236.648 218.606 182.98 226.01 164.097Z" fill="#D6E5F8"/>
<path opacity="0.5" d="M195.83 276.89C195.847 264.89 195.985 252.583 196.332 242.215C196.332 242.215 194.689 251.918 194.625 277.078" fill="#9EC7F3"/>
<path opacity="0.5" d="M193.753 302.497C194.031 311.229 194.527 319.429 195.182 330.437C195.182 330.437 195.043 311.672 194.809 302.474" fill="#9EC7F3"/>
<path d="M218.725 184.468L196.124 240.449L192.904 187.003L204.34 191.386L218.725 184.468Z" fill="#00C4B4"/>
<path d="M194.125 182.201C194.125 182.201 194.128 182.205 194.133 182.212C198.138 188.288 207.845 193.746 221.159 176.344L221.57 177.706L218.725 184.468C208.812 196.104 198.859 193.568 194.416 188.574L194.12 188.242L194.125 182.201Z" fill="#00786E"/>
<path d="M166.593 306.642H87.9599C82.8897 306.642 78.3555 303.677 76.5952 299.21L38.5583 202.69C37.0999 198.99 40.0138 195.057 44.2141 195.057H126.991C131.206 195.057 134.943 197.607 136.245 201.374L170.776 301.235C171.698 303.904 169.581 306.642 166.593 306.642Z" fill="#00C4B4"/>
<path d="M119.109 200.387L120.99 205.617" stroke="white" stroke-width="3" stroke-miterlimit="10"/>
<path d="M136.877 221.881H130.672" stroke="white" stroke-width="3" stroke-miterlimit="10"/>
<path d="M140.297 231.391H134.092" stroke="white" stroke-width="3" stroke-miterlimit="10"/>
<path d="M143.375 239.948H137.17" stroke="white" stroke-width="3" stroke-miterlimit="10"/>
<path d="M146.681 249.141H140.476" stroke="white" stroke-width="3" stroke-miterlimit="10"/>
<path d="M155.091 300.441L153.211 295.21" stroke="white" stroke-width="3" stroke-miterlimit="10"/>
<path d="M159.694 285.323H153.488" stroke="white" stroke-width="3" stroke-miterlimit="10"/>
<path d="M156.274 275.814H150.069" stroke="white" stroke-width="3" stroke-miterlimit="10"/>
<path d="M153.196 267.255H146.991" stroke="white" stroke-width="3" stroke-miterlimit="10"/>
<path d="M149.889 258.063H143.685" stroke="white" stroke-width="3" stroke-miterlimit="10"/>
<path d="M52.5752 200.387L54.4558 205.617" stroke="white" stroke-width="3" stroke-miterlimit="10"/>
<path d="M60.7627 221.881H54.5571" stroke="white" stroke-width="3" stroke-miterlimit="10"/>
<path d="M64.1826 231.391H57.9771" stroke="white" stroke-width="3" stroke-miterlimit="10"/>
<path d="M67.2607 239.948H61.0552" stroke="white" stroke-width="3" stroke-miterlimit="10"/>
<path d="M70.5661 249.141H64.3613" stroke="white" stroke-width="3" stroke-miterlimit="10"/>
<path d="M88.5581 300.441L86.6768 295.21" stroke="white" stroke-width="3" stroke-miterlimit="10"/>
<path d="M83.5786 285.323H77.373" stroke="white" stroke-width="3" stroke-miterlimit="10"/>
<path d="M80.1586 275.814H73.9531" stroke="white" stroke-width="3" stroke-miterlimit="10"/>
<path d="M77.0808 267.255H70.876" stroke="white" stroke-width="3" stroke-miterlimit="10"/>
<path d="M73.7746 258.063H67.5698" stroke="white" stroke-width="3" stroke-miterlimit="10"/>
<path opacity="0.25" d="M312.771 314.959L354.906 313.848L353.886 298.95H313.03L312.771 314.959Z" fill="#00786E"/>
<path opacity="0.5" d="M196.338 242.235C196.338 242.235 209.46 221.02 226.011 211.779C226.011 211.779 228.147 210.307 227.236 209.201L218.422 204.084L221.477 201.069C221.477 201.069 229.79 198.339 234.388 197.619C234.388 197.619 235.87 197.535 236.023 195.057C236.176 192.579 236.381 168.229 236.381 168.229L221.871 185.498L196.338 242.235Z" fill="#9EC7F3"/>
<path d="M193.746 170.06L187.928 174.532C187.928 174.532 176.629 193.484 172.794 200.93C172.563 201.379 172.913 201.898 173.443 201.898H183.026C183.026 201.898 184.457 205.45 181.756 208.747C179.056 212.045 179.435 216.612 183.026 219.402C186.617 222.193 195.528 238.175 196.338 242.234L193.746 170.06Z" fill="#FFF5F6"/>
<path d="M226.01 164.097L196.113 238.866L196.337 242.235C196.337 242.235 206.39 220.612 227.021 210.085C227.364 209.91 227.466 209.496 227.235 209.201C226.403 208.144 224.367 205.72 221.208 203.03C220.545 202.465 220.681 201.455 221.476 201.069C224.279 199.711 230.1 197.136 234.459 196.851C234.893 196.822 235.235 196.496 235.252 196.088L236.38 168.228L226.01 164.097Z" fill="#FFF5F6"/>
<path opacity="0.5" d="M182.426 302.288C182.426 302.288 244.567 303.843 260.92 299.26L262.915 308.779C262.915 308.779 232.218 311.014 182.426 302.288Z" fill="#9EC7F3"/>
<path opacity="0.5" d="M164.655 236.648L162.794 239.219L162.117 204.096C162.117 204.096 166.582 230.157 166.905 240.449C167.227 250.742 166.99 261.112 166.99 261.112L164.655 236.648Z" fill="#9EC7F3"/>
<path d="M182.426 278.685V302.288L188.927 302.608C188.927 302.608 191.602 291.27 187.854 277.968L182.426 278.685Z" fill="#F0F6FF"/>
<path opacity="0.5" d="M242.16 270.561C241.597 265.733 244.754 265.683 244.754 265.683C246.737 266.373 247.458 265.875 252.448 269.773C252.448 269.773 250.26 265.843 245.042 264.947L242.191 220.417L243.472 264.505C239.691 265.858 240.502 269.832 240.502 269.832L182.427 278.686L241.382 270.889C244.403 272.532 246.76 276.78 246.76 276.78C245.451 273.164 243.529 271.401 242.16 270.561Z" fill="#9EC7F3"/>
<path d="M32.247 215.659C30.3832 214.656 29.7816 212.402 30.9075 210.684C31.3304 210.037 31.8 209.489 32.2725 209.254C33.7973 208.496 47.2621 206.129 48.7067 205.935C50.2263 205.731 50.4174 208.351 48.5317 209.638C46.6445 210.924 32.247 215.659 32.247 215.659Z" fill="#C36BE0"/>
<path d="M35.3813 224.828C33.5174 223.825 32.9158 221.572 34.0417 219.853C34.4647 219.207 34.9343 218.658 35.4068 218.423C36.9316 217.666 50.6779 214.277 51.8409 215.104C53.2352 216.096 53.5517 217.52 51.6659 218.807C49.7795 220.093 35.3813 224.828 35.3813 224.828Z" fill="#C36BE0"/>
<path d="M38.1151 222.934C36.8375 223.233 35.7138 224.01 35.1494 225.121C34.8643 225.682 34.7075 226.336 34.8774 227.033C35.2865 228.714 36.5123 230.421 38.9719 231.143C41.4315 231.865 49.4455 230.175 49.4455 230.175L47.5955 225.319L53.2133 223.591C55.4994 222.738 54.3946 219.377 51.6389 220.026C50.7274 220.24 41.3301 222.181 38.1151 222.934Z" fill="#C36BE0"/>
<path d="M33.9218 219.988C32.058 218.985 31.4564 216.731 32.5823 215.012C33.0059 214.366 33.4748 213.818 33.9473 213.583C35.4721 212.825 47.7126 210.78 49.1389 210.492C50.5455 210.208 52.0922 212.68 50.2057 213.966C48.32 215.252 33.9218 219.988 33.9218 219.988Z" fill="#C36BE0"/>
<path d="M47.7454 215.368C47.7534 215.414 46.9323 215.609 45.6001 215.885C44.2678 216.162 42.4207 216.517 40.3819 216.896C38.3532 217.29 36.563 217.84 35.4692 218.587C34.3681 219.312 33.9969 220.071 33.9349 220.026C33.916 220.016 33.9918 219.828 34.1982 219.519C34.4031 219.213 34.7597 218.789 35.3175 218.391C35.871 217.997 36.5973 217.607 37.4585 217.31C38.3153 217.01 39.2815 216.763 40.3075 216.559C42.3544 216.179 44.2095 215.861 45.5556 215.646C46.901 215.43 47.7374 215.321 47.7454 215.368Z" fill="#9141AF"/>
<path d="M45.3776 211.168C45.3856 211.214 44.5995 211.39 43.322 211.637C41.9314 211.89 40.2192 212.201 38.3269 212.545C36.3959 212.944 34.6867 213.492 33.6797 214.246C32.669 214.986 32.3073 215.7 32.2468 215.658C32.2271 215.648 32.3 215.468 32.4918 215.171C32.6836 214.876 33.0066 214.462 33.5192 214.056C34.5336 213.216 36.3033 212.61 38.2481 212.21C40.2075 211.845 41.9875 211.591 43.2782 211.397C44.5682 211.213 45.3696 211.121 45.3776 211.168Z" fill="#9141AF"/>
<path d="M47.9176 220.752C47.9285 220.798 47.192 221.003 45.9918 221.308C44.7944 221.61 43.1172 222.012 41.2468 222.299C39.3983 222.619 37.7444 223.076 36.7389 223.725C35.7151 224.358 35.3424 225.022 35.2885 224.983C35.2702 224.973 35.3388 224.8 35.5379 224.524C35.7369 224.251 36.0782 223.88 36.5908 223.526C37.6124 222.791 39.3122 222.283 41.1797 221.961C43.0516 221.674 44.7135 221.314 45.9312 221.072C47.1468 220.828 47.9067 220.705 47.9176 220.752Z" fill="#9141AF"/>
<path d="M48.6881 224.982C48.7195 225.073 47.4091 225.564 45.7633 226.079C44.116 226.594 42.7495 226.94 42.7108 226.853C42.6714 226.765 43.9811 226.275 45.6364 225.757C47.2903 225.239 48.6568 224.893 48.6881 224.982Z" fill="#9141AF"/>
<path d="M182.426 280.554H173.875C173.875 280.554 169.501 276.583 168.313 276.025C167.125 275.467 161.278 273.808 161.278 273.808L163.283 279.571C163.283 279.571 163.787 279.737 164.571 280.025C166.062 280.571 165.647 281.81 164.459 281.81C163.271 281.81 155.847 281.81 155.847 281.81C155.847 281.81 147.034 277.838 145.724 278.565C144.625 279.175 144.242 280.276 145.367 281.81C146.493 283.344 154.214 286.971 155.104 287.25L157.629 287.948L155.253 288.645L144.022 284.958C143.292 284.836 142.285 284.723 141.957 285.119C141.504 285.666 141.23 286.392 142.016 287.16C143.405 288.518 147.097 290.913 147.097 290.913C147.097 290.913 145.304 293.388 146.789 294.644C148.274 295.899 152.58 299.665 152.58 299.665C152.58 299.665 153.025 301.758 154.361 302.734C155.698 303.711 170.397 303.711 171.436 303.711C172.475 303.711 178.415 300.503 178.415 300.503L182.304 300.122L182.426 280.554Z" fill="#C36BE0"/>
<path d="M156.945 294.903C156.949 294.936 156.35 295.088 155.337 295.107C154.833 295.11 154.213 295.042 153.579 294.818C152.944 294.599 152.304 294.249 151.667 293.861C150.393 293.084 149.254 292.364 148.438 291.83C147.622 291.296 147.131 290.947 147.157 290.91C147.184 290.872 147.722 291.153 148.572 291.639C149.421 292.124 150.583 292.814 151.854 293.59C152.487 293.976 153.099 294.319 153.694 294.541C154.287 294.768 154.857 294.853 155.345 294.88C156.321 294.918 156.94 294.848 156.945 294.903Z" fill="#9141AF"/>
<path d="M157.619 300.07C157.647 300.088 157.298 300.47 156.503 300.659C155.731 300.853 154.526 300.774 153.472 300.18C152.413 299.628 151.582 298.962 151.011 298.46C150.445 297.95 150.143 297.594 150.174 297.564C150.252 297.48 151.601 298.806 153.637 299.897C154.64 300.459 155.714 300.554 156.453 300.435C157.199 300.318 157.586 300.022 157.619 300.07Z" fill="#9141AF"/>
<path d="M161.782 288.64C161.775 288.726 160.722 288.718 159.455 288.471C158.187 288.226 157.216 287.843 157.247 287.761C157.277 287.674 158.28 287.915 159.525 288.154C160.768 288.397 161.791 288.549 161.782 288.64Z" fill="#9141AF"/>
<path d="M176.927 106.764C209.481 103.337 217.438 106.14 217.438 106.14C220.595 110.885 226.066 125.011 226.64 130.11C229.64 128.083 234.543 125.525 235.699 129.673C237.424 135.866 232.047 142.621 224.569 146.597C221.372 155.139 215.109 161.917 207.597 164.131C191.657 168.828 184.685 167.574 176.243 147.626C167.801 127.678 176.927 106.764 176.927 106.764Z" fill="#C36BE0"/>
<path d="M174.465 114.514L173.846 117.323C173.846 117.323 181.977 116.618 188.873 113.43C200.093 108.242 206.653 108.047 206.653 108.047L193.29 105.06L174.465 114.514Z" fill="#9141AF"/>
<path d="M231.222 108.25C231.077 105.026 229.557 102.072 227.074 100.318C225.377 99.1194 223.418 97.9059 221.53 97.8621C220.579 94.0473 216.313 89.7716 212.774 88.0731C207.889 85.7293 200.956 87.6268 195.74 88.8505C192.449 89.6221 189.123 90.8495 185.795 90.3003C183.563 89.932 181.512 88.7871 179.478 87.718C177.443 86.6496 175.317 85.6235 173.062 85.5236C170.807 85.4237 168.371 86.4491 167.295 88.6157C166.422 90.3725 166.854 92.8433 168.216 94.0364C165.594 93.0752 162.217 94.7861 161.51 97.7877C160.873 100.49 162.596 103.418 164.933 104.369C163.989 104.797 163.175 105.858 163.164 107.016C163.146 109.024 164.651 110.667 166.245 111.669C170.315 114.228 172.627 114.856 178.957 114.415C183.677 114.086 187.9 111.273 192.46 110.05C197.02 108.827 204.68 106.571 208.913 108.79C210.82 109.79 212.244 111.873 213.504 113.175C214.368 114.598 214.975 116.204 215.268 117.913C215.288 118.028 215.307 118.138 215.325 118.242C216.117 122.903 216.217 127.68 217.051 132.332C217.885 136.984 219.125 137.587 222.437 140.651C223.799 141.911 227.141 141.359 228.146 139.748C228.536 139.125 228.569 138.325 228.59 137.572C228.902 126.201 231.755 120.093 231.222 108.25Z" fill="#081647"/>
<path d="M193.883 166.344C193.883 166.344 216.515 168.945 224.57 146.596C224.57 146.596 221.29 163.426 205.81 167.079C205.81 167.079 199.32 169.192 193.792 168.819L193.883 166.344Z" fill="#9141AF"/>
<path d="M388.083 304.242L375.255 291.588L353.469 302.641L354.907 313.848L391.602 312.283L388.083 304.242Z" fill="#9AC9F3"/>
<path d="M231.799 277.041L293.032 301.295L338.827 304.371C339.834 304.521 340.267 303.175 339.351 302.742L285.304 277.119C283.736 276.377 282.017 275.981 280.272 275.959L232.119 275.368C231.121 275.355 230.862 276.704 231.799 277.041Z" fill="#1A2E35"/>
<path d="M255.452 301.11C254.924 297.668 253.713 294.326 251.907 291.32C251.553 290.731 251.171 290.143 250.999 289.482C250.827 288.82 250.901 288.055 251.376 287.553C252.23 286.65 253.792 287.052 254.841 287.734C257.015 289.147 258.47 291.425 259.323 293.825C260.176 296.226 260.485 298.772 260.788 301.295" fill="#C36BE0"/>
<path d="M279.521 295.944L278.081 294.958C277.426 294.285 276.421 293.683 275.179 293.339C274.416 293.128 273.666 293.521 272.99 294.167C274.469 291.8 276.064 289.195 276.37 288.482C276.966 287.094 275.656 286.054 273.512 286.054C271.368 286.054 261.958 299.006 261.958 299.006C261.958 299.006 267.806 288.588 268.372 286.997C269.789 283.019 265.309 282.722 263.682 284.641C261.663 287.023 253.5 299.006 253.5 299.006C253.5 299.006 251.952 301.435 253.024 303.748C254.096 306.061 257.193 305.136 257.193 305.136C257.193 305.136 257.169 307.159 259.378 308.351C261.767 309.64 264.912 308.145 264.912 308.145L277.086 310.803C277.086 310.803 279.018 310.614 281.492 310.375C287.657 309.78 292.126 307.248 293.032 301.297L279.521 295.944Z" fill="#C36BE0"/>
<path d="M273.187 293.987C273.323 294.067 271.705 296.542 269.601 299.508C268.549 300.993 267.575 302.323 266.854 303.275C266.133 304.227 265.665 304.8 265.622 304.771C265.579 304.741 265.969 304.116 266.633 303.126C267.297 302.136 268.235 300.784 269.287 299.299C270.338 297.815 271.304 296.48 272.01 295.52C272.322 295.103 272.601 294.728 272.855 294.389C273.063 294.119 273.157 293.994 273.187 293.987Z" fill="#9141AF"/>
<path d="M272.458 307.173C272.409 307.146 272.815 306.399 273.538 305.237C274.257 304.073 275.283 302.484 276.409 300.728C276.969 299.849 277.509 299.011 277.951 298.238C278.413 297.494 278.381 296.674 278.219 296.045C277.862 294.757 277.113 294.208 277.18 294.163C277.193 294.147 277.382 294.26 277.653 294.546C277.918 294.832 278.265 295.301 278.478 295.974C278.689 296.627 278.753 297.565 278.262 298.395C277.824 299.2 277.294 300.04 276.732 300.923C275.604 302.683 274.541 304.248 273.765 305.377C272.984 306.503 272.501 307.196 272.458 307.173Z" fill="#9141AF"/>
<path d="M278.86 308.35C278.81 308.335 279.015 307.609 279.507 306.506C279.772 305.92 280.063 305.274 280.377 304.579C280.693 303.855 281.056 303.056 281.27 302.193C281.487 301.357 281.341 300.457 280.886 299.884C280.666 299.6 280.334 299.431 280.017 299.282C279.702 299.14 279.387 299.044 279.109 299.037C278.562 299.063 278.101 299.355 277.798 299.481C277.489 299.63 277.309 299.702 277.297 299.679C277.284 299.657 277.436 299.545 277.724 299.356C277.869 299.264 278.048 299.151 278.269 299.038C278.495 298.933 278.748 298.791 279.107 298.775C279.448 298.767 279.797 298.862 280.144 299.001C280.479 299.143 280.87 299.322 281.159 299.67C281.721 300.352 281.875 301.346 281.642 302.276C281.413 303.194 281.034 303.993 280.698 304.718C280.353 305.44 280.023 306.077 279.752 306.615C279.199 307.685 278.91 308.365 278.86 308.35Z" fill="#9141AF"/>
<path d="M281.102 297.164C281.111 297.143 281.298 297.187 281.62 297.317C281.942 297.445 282.391 297.678 282.892 298.042C283.89 298.755 285.082 300.125 285.511 301.972C285.932 303.822 285.453 305.554 284.862 306.611C284.568 307.149 284.263 307.544 284.028 307.793C283.794 308.043 283.643 308.16 283.626 308.145C283.571 308.101 284.113 307.564 284.62 306.496C285.129 305.447 285.536 303.796 285.139 302.053C284.735 300.312 283.644 298.986 282.724 298.247C281.797 297.489 281.071 297.226 281.102 297.164Z" fill="#9141AF"/>
<path d="M259.666 290.37C259.753 290.427 258.519 292.344 256.91 294.652C255.301 296.961 253.926 298.785 253.839 298.728C253.751 298.671 254.985 296.753 256.595 294.445C258.203 292.137 259.578 290.312 259.666 290.37Z" fill="#9141AF"/>
<path d="M338.617 282.754L331.009 281.079L323.702 274.397C322.815 273.585 321.66 273.103 320.443 273.035L307.146 272.291C305.82 272.217 304.515 272.64 303.5 273.472L293.993 281.271L335.46 300.898L341.151 301.386L338.617 282.754Z" fill="#C36BE0"/>
<path d="M316.077 279.306C316.066 279.365 315.091 279.189 313.515 278.996C311.963 278.829 309.682 278.619 307.494 279.602C306.403 280.076 305.468 280.74 304.624 281.343C303.783 281.956 303.029 282.524 302.362 282.959C301.697 283.398 301.126 283.704 300.718 283.889C300.307 284.067 300.071 284.142 300.061 284.121C300.036 284.065 300.938 283.674 302.207 282.746C302.846 282.289 303.577 281.704 304.412 281.072C305.251 280.449 306.199 279.76 307.337 279.266C308.467 278.747 309.668 278.561 310.733 278.529C311.806 278.5 312.761 278.615 313.553 278.738C314.345 278.863 314.976 279.004 315.411 279.107C315.845 279.209 316.082 279.281 316.077 279.306Z" fill="#9141AF"/>
<path d="M318.803 286.493C318.778 286.552 318.258 286.32 317.369 286.229C316.484 286.129 315.23 286.233 313.948 286.692C312.664 287.152 311.593 287.796 310.817 288.252C310.042 288.714 309.555 288.997 309.523 288.952C309.495 288.912 309.925 288.555 310.667 288.033C311.411 287.519 312.48 286.823 313.817 286.343C315.155 285.864 316.489 285.795 317.406 285.97C318.333 286.136 318.824 286.461 318.803 286.493Z" fill="#9141AF"/>
<path d="M335.918 287.686C335.824 287.742 334.752 286.2 333.339 284.365C331.931 282.527 330.716 281.088 330.797 281.018C330.872 280.952 332.225 282.29 333.645 284.144C335.068 285.994 336.004 287.636 335.918 287.686Z" fill="#9141AF"/>
<path d="M390.434 187.263C398.483 190.289 404.453 196.998 406.362 205.17C412.524 231.55 423.072 266.638 423.237 277.958C423.448 292.377 416.954 302.246 408.478 304.066C401.774 305.505 341.012 302.276 341.012 302.276L338.17 280.296L387.374 273.263L380.636 236.711L387.305 186.086L390.434 187.263Z" fill="#D6E5F8"/>
<path d="M349.038 245.048C349.038 245.048 367.538 227.714 361.964 206.003L365.438 205.931C365.438 205.931 370.095 175.233 359.375 172.53C359.375 172.53 354.644 220.949 349.038 245.048Z" fill="#FFF5F6"/>
<path d="M314.869 245.261C314.869 245.261 304.127 232.208 307.35 208.743H310.808L306.747 204.05C306.747 204.05 306.812 193.975 313.258 182.587C313.258 182.587 318.334 179.707 322.666 178.866C322.665 178.866 314.706 209.144 314.869 245.261Z" fill="#FFF5F6"/>
<path d="M356.368 177.176C356.361 177.203 355.917 177.138 355.109 177.071C354.302 177.007 353.127 176.953 351.68 177.023C350.233 177.091 348.519 177.288 346.642 177.619C344.763 177.943 342.721 178.398 340.556 178.83C338.393 179.261 336.3 179.613 334.361 179.735C332.425 179.864 330.654 179.749 329.225 179.45C327.792 179.163 326.712 178.715 326.02 178.356C325.675 178.173 325.42 178.017 325.255 177.902C325.091 177.787 325.009 177.723 325.018 177.714C325.039 177.691 325.394 177.922 326.099 178.249C326.805 178.569 327.878 178.975 329.289 179.229C330.695 179.493 332.428 179.582 334.332 179.439C336.238 179.302 338.308 178.946 340.465 178.516C342.621 178.086 344.673 177.638 346.569 177.327C348.464 177.01 350.202 176.834 351.667 176.795C353.133 176.753 354.32 176.843 355.129 176.946C355.533 177.001 355.845 177.05 356.054 177.096C356.263 177.138 356.371 177.166 356.368 177.176Z" fill="#00786E"/>
<g opacity="0.35">
<g opacity="0.35">
<path opacity="0.35" d="M326.538 178.457C325.696 180.358 325.672 182.715 327.381 184.173C328.774 185.362 331.011 185.659 332.981 185.336C334.952 185.013 336.724 184.162 338.45 183.318C342.782 181.201 347.183 179.009 352.103 178.111C352.419 178.053 352.755 177.993 352.987 177.808C353.219 177.623 353.277 177.265 353.016 177.109C352.9 177.04 352.751 177.024 352.608 177.013C348.256 176.654 343.936 177.665 339.669 178.451C335.402 179.238 330.845 179.795 326.731 178.576" fill="#00786E"/>
</g>
</g>
<path d="M332.548 171.487C332.58 171.534 331.936 171.658 331.472 172.332C330.975 172.987 331.002 174.099 331.042 175.301C331.123 177.713 331.607 179.64 331.492 179.66C331.442 179.669 331.257 179.198 331.066 178.414C330.875 177.63 330.694 176.532 330.649 175.311C330.633 174.699 330.625 174.122 330.692 173.583C330.76 173.047 330.945 172.558 331.236 172.211C331.521 171.863 331.866 171.654 332.124 171.562C332.383 171.468 332.544 171.469 332.548 171.487Z" fill="#00786E"/>
<path d="M340.863 178.57C340.739 178.56 341.021 176.784 340.637 174.626C340.276 172.465 339.403 170.823 339.519 170.785C339.563 170.768 339.839 171.157 340.163 171.834C340.486 172.509 340.835 173.479 341.027 174.58C341.216 175.681 341.209 176.692 341.127 177.414C341.044 178.139 340.911 178.576 340.863 178.57Z" fill="#00786E"/>
<path d="M350.991 170.102C351.03 170.085 351.317 170.429 351.591 171.061C351.866 171.69 352.084 172.618 352.003 173.646C351.918 174.672 351.552 175.569 351.178 176.163C350.805 176.76 350.465 177.069 350.429 177.048C350.314 177.004 351.471 175.615 351.611 173.624C351.792 171.636 350.87 170.134 350.991 170.102Z" fill="#00786E"/>
<path d="M316.066 104.125C316.066 104.125 318.38 114.619 334.16 122.588C349.94 130.557 349.302 136.763 349.302 136.763C349.302 136.763 352.163 129.752 358.682 133.079C358.682 133.079 363.651 137.132 358.853 145.05C354.055 152.967 349.039 152.568 349.039 152.568C349.039 152.568 340.849 166.061 331.105 166.411C320.586 166.79 313.608 162.456 308.601 148.734C303.594 135.012 304.423 117.611 316.066 104.125Z" fill="#C36BE0"/>
<path d="M316.167 104.112L317.271 107.044C319.659 113.389 324.165 118.764 330.116 122.013C330.327 122.128 330.542 122.242 330.76 122.354C333.433 123.724 336.903 125.426 339.507 126.923C343.451 129.189 348.167 133.472 349.301 136.762C349.301 136.762 349.313 130.043 335.547 123.273C320.683 115.963 316.167 104.112 316.167 104.112Z" fill="#9141AF"/>
<path d="M343.143 279.584C343.143 279.584 347.012 284.352 347.012 302.581L341.012 302.276L338.17 280.295L343.143 279.584Z" fill="#F0F6FF"/>
<path d="M316.167 104.112C316.167 104.112 308.202 115.783 305.784 135.279C305.784 135.279 302.937 119.443 316.167 104.112Z" fill="#9141AF"/>
<path d="M353.188 151.202C353.188 151.202 352.041 152.626 349.038 152.568C349.038 152.568 344.003 165.05 329.329 166.435L328.911 168.029C328.911 168.029 343.009 167.656 349.301 153.659C349.302 153.659 352.049 152.956 353.188 151.202Z" fill="#9141AF"/>
<path d="M434.561 324.204C434.352 324.204 434.179 324.038 434.172 323.827C434.166 323.612 434.334 323.432 434.549 323.425C436.079 323.377 437.639 323.273 439.186 323.117C439.4 323.095 439.591 323.252 439.613 323.466C439.634 323.68 439.478 323.871 439.264 323.892C437.7 324.05 436.122 324.154 434.574 324.203C434.569 324.204 434.564 324.204 434.561 324.204ZM429.889 324.185C429.884 324.185 429.878 324.185 429.873 324.184C428.304 324.121 426.726 323.998 425.186 323.82C424.973 323.795 424.819 323.602 424.844 323.388C424.869 323.174 425.061 323.02 425.276 323.046C426.797 323.222 428.355 323.343 429.904 323.405C430.119 323.414 430.286 323.595 430.277 323.81C430.269 324.021 430.096 324.185 429.889 324.185ZM443.858 323.273C443.67 323.273 443.506 323.138 443.474 322.948C443.438 322.736 443.582 322.535 443.794 322.5C445.305 322.247 446.84 321.939 448.355 321.587C448.565 321.54 448.774 321.669 448.823 321.878C448.872 322.088 448.741 322.297 448.532 322.346C447.001 322.702 445.45 323.012 443.922 323.268C443.901 323.272 443.879 323.273 443.858 323.273ZM420.616 323.105C420.591 323.105 420.566 323.103 420.54 323.098C419.002 322.796 417.463 322.43 415.967 322.009C415.76 321.95 415.639 321.735 415.697 321.528C415.755 321.321 415.972 321.201 416.178 321.258C417.653 321.673 419.172 322.035 420.69 322.333C420.901 322.374 421.038 322.578 420.997 322.79C420.96 322.976 420.798 323.105 420.616 323.105ZM452.963 321.159C452.795 321.159 452.64 321.05 452.59 320.881C452.528 320.674 452.646 320.458 452.852 320.396C454.325 319.959 455.811 319.469 457.272 318.941C457.475 318.869 457.697 318.973 457.771 319.176C457.844 319.378 457.739 319.601 457.537 319.674C456.061 320.207 454.561 320.702 453.074 321.144C453.037 321.154 453 321.159 452.963 321.159ZM411.634 320.577C411.589 320.577 411.543 320.568 411.498 320.552C410.035 320.007 408.576 319.394 407.162 318.729C406.967 318.637 406.884 318.405 406.975 318.211C407.067 318.016 407.299 317.932 407.493 318.024C408.888 318.68 410.326 319.285 411.77 319.822C411.971 319.898 412.074 320.121 411.999 320.323C411.94 320.48 411.791 320.577 411.634 320.577ZM461.753 317.984C461.602 317.984 461.458 317.895 461.395 317.747C461.31 317.549 461.402 317.32 461.601 317.236C463.015 316.632 464.437 315.978 465.827 315.291C466.019 315.196 466.254 315.275 466.348 315.468C466.444 315.661 466.364 315.895 466.171 315.989C464.768 316.682 463.333 317.342 461.905 317.952C461.856 317.974 461.804 317.984 461.753 317.984ZM403.186 316.603C403.12 316.603 403.053 316.587 402.992 316.552C401.646 315.776 400.308 314.931 399.016 314.039C398.838 313.917 398.794 313.675 398.916 313.497C399.038 313.32 399.28 313.276 399.458 313.398C400.732 314.278 402.052 315.111 403.38 315.876C403.567 315.984 403.631 316.222 403.523 316.408C403.452 316.533 403.321 316.603 403.186 316.603ZM470.13 313.848C469.994 313.848 469.862 313.777 469.79 313.65C469.685 313.462 469.751 313.225 469.938 313.12C471.284 312.361 472.625 311.557 473.925 310.728C474.105 310.612 474.346 310.665 474.462 310.847C474.578 311.028 474.525 311.269 474.343 311.385C473.032 312.221 471.678 313.034 470.32 313.799C470.261 313.832 470.195 313.848 470.13 313.848ZM395.5 311.305C395.414 311.305 395.327 311.276 395.255 311.217C394.053 310.24 392.866 309.196 391.724 308.113C391.568 307.965 391.562 307.718 391.71 307.562C391.857 307.406 392.104 307.399 392.26 307.547C393.388 308.616 394.562 309.648 395.747 310.612C395.914 310.748 395.939 310.994 395.804 311.16C395.725 311.255 395.613 311.305 395.5 311.305ZM478.002 308.829C477.881 308.829 477.761 308.773 477.685 308.667C477.56 308.492 477.6 308.249 477.775 308.124C479.034 307.221 480.281 306.273 481.479 305.307C481.646 305.171 481.891 305.198 482.027 305.366C482.162 305.533 482.136 305.779 481.968 305.914C480.758 306.889 479.5 307.845 478.229 308.757C478.159 308.806 478.08 308.829 478.002 308.829ZM485.279 302.965C485.172 302.965 485.067 302.922 484.99 302.837C484.845 302.677 484.859 302.431 485.018 302.287C486.171 301.244 487.301 300.161 488.373 299.067C488.524 298.913 488.771 298.911 488.924 299.062C489.078 299.213 489.08 299.459 488.929 299.612C487.845 300.717 486.704 301.812 485.54 302.865C485.465 302.933 485.372 302.965 485.279 302.965ZM491.82 296.292C491.729 296.292 491.639 296.26 491.565 296.197C491.403 296.056 491.385 295.811 491.526 295.648C492.547 294.466 493.531 293.251 494.449 292.034C494.578 291.862 494.823 291.829 494.995 291.958C495.166 292.088 495.2 292.332 495.07 292.503C494.142 293.734 493.148 294.962 492.114 296.157C492.038 296.247 491.929 296.292 491.82 296.292ZM497.442 288.831C497.369 288.831 497.296 288.81 497.23 288.768C497.049 288.651 496.998 288.41 497.115 288.229C497.965 286.917 498.764 285.574 499.489 284.239C499.591 284.05 499.828 283.98 500.017 284.082C500.206 284.185 500.276 284.422 500.173 284.61C499.439 285.964 498.63 287.323 497.769 288.653C497.694 288.769 497.569 288.831 497.442 288.831ZM501.885 280.619C501.833 280.619 501.78 280.608 501.73 280.586C501.532 280.5 501.442 280.271 501.529 280.073C502.155 278.641 502.714 277.186 503.189 275.746C503.257 275.542 503.477 275.431 503.681 275.498C503.885 275.566 503.996 275.786 503.929 275.99C503.446 277.453 502.879 278.931 502.243 280.385C502.178 280.532 502.035 280.619 501.885 280.619ZM351.991 276.638C351.941 276.638 351.89 276.628 351.84 276.607C350.403 276.001 348.943 275.443 347.502 274.949C347.298 274.879 347.189 274.657 347.259 274.454C347.329 274.25 347.55 274.142 347.755 274.212C349.213 274.712 350.69 275.276 352.144 275.889C352.342 275.973 352.435 276.201 352.352 276.399C352.287 276.548 352.143 276.638 351.991 276.638ZM343.158 273.614C343.126 273.614 343.092 273.609 343.059 273.601C341.558 273.205 340.034 272.863 338.529 272.586C338.317 272.548 338.177 272.344 338.216 272.133C338.255 271.921 338.456 271.78 338.669 271.82C340.194 272.1 341.737 272.445 343.257 272.847C343.465 272.901 343.589 273.114 343.534 273.323C343.489 273.498 343.331 273.614 343.158 273.614ZM319.994 272.206C319.804 272.206 319.637 272.066 319.609 271.872C319.579 271.659 319.727 271.461 319.94 271.43C321.489 271.208 323.064 271.047 324.619 270.953C324.834 270.94 325.018 271.103 325.031 271.318C325.044 271.532 324.881 271.718 324.666 271.73C323.131 271.823 321.578 271.982 320.049 272.201C320.031 272.205 320.013 272.206 319.994 272.206ZM333.976 271.93C333.962 271.93 333.949 271.929 333.935 271.928C332.399 271.769 330.841 271.672 329.304 271.64C329.089 271.635 328.918 271.457 328.923 271.242C328.927 271.027 329.113 270.862 329.321 270.861C330.878 270.894 332.458 270.992 334.015 271.152C334.229 271.174 334.385 271.366 334.363 271.58C334.342 271.78 334.173 271.93 333.976 271.93ZM504.797 271.756C504.77 271.756 504.741 271.753 504.713 271.747C504.503 271.701 504.37 271.493 504.417 271.282C504.752 269.762 505.003 268.227 505.163 266.719C505.185 266.505 505.371 266.347 505.591 266.372C505.804 266.395 505.96 266.587 505.937 266.8C505.774 268.337 505.518 269.901 505.177 271.449C505.138 271.632 504.977 271.756 504.797 271.756ZM505.769 262.492C505.556 262.492 505.382 262.322 505.379 262.108C505.358 260.561 505.241 259.011 505.031 257.5C505.001 257.287 505.15 257.09 505.362 257.06C505.577 257.03 505.772 257.179 505.801 257.393C506.017 258.936 506.136 260.519 506.158 262.098C506.161 262.313 505.989 262.489 505.774 262.492C505.772 262.492 505.771 262.492 505.769 262.492ZM504.48 253.261C504.309 253.261 504.152 253.147 504.105 252.973C503.704 251.499 503.204 250.027 502.618 248.598C502.536 248.399 502.631 248.171 502.83 248.089C503.028 248.008 503.257 248.102 503.338 248.302C503.937 249.761 504.448 251.263 504.856 252.768C504.913 252.976 504.79 253.19 504.582 253.246C504.548 253.256 504.514 253.261 504.48 253.261ZM500.95 244.633C500.813 244.633 500.68 244.56 500.609 244.433C499.874 243.111 499.043 241.794 498.14 240.52C498.015 240.344 498.057 240.101 498.232 239.976C498.407 239.852 498.651 239.894 498.775 240.069C499.695 241.366 500.541 242.707 501.291 244.054C501.395 244.242 501.328 244.479 501.14 244.584C501.079 244.617 501.014 244.633 500.95 244.633ZM495.568 237.013C495.46 237.013 495.351 236.968 495.275 236.879C494.284 235.738 493.209 234.607 492.081 233.517C491.926 233.368 491.922 233.121 492.071 232.966C492.22 232.812 492.467 232.808 492.622 232.957C493.766 234.063 494.857 235.211 495.862 236.369C496.003 236.531 495.986 236.777 495.824 236.918C495.75 236.982 495.66 237.013 495.568 237.013ZM488.866 230.515C488.78 230.515 488.691 230.486 488.618 230.426C487.757 229.713 486.849 229.001 485.92 228.309C485.591 228.064 485.264 227.819 484.939 227.574C484.767 227.444 484.733 227.201 484.862 227.029C484.992 226.857 485.236 226.822 485.408 226.952C485.732 227.197 486.058 227.441 486.385 227.684C487.325 228.384 488.244 229.104 489.115 229.826C489.281 229.963 489.304 230.208 489.167 230.374C489.089 230.467 488.979 230.515 488.866 230.515ZM481.479 224.789C481.394 224.789 481.308 224.761 481.237 224.705C480.017 223.733 478.798 222.736 477.612 221.739C477.448 221.601 477.427 221.355 477.565 221.19C477.704 221.025 477.949 221.004 478.114 221.143C479.294 222.135 480.508 223.128 481.722 224.095C481.891 224.229 481.918 224.474 481.784 224.643C481.707 224.739 481.594 224.789 481.479 224.789ZM474.328 218.776C474.236 218.776 474.144 218.744 474.069 218.678C472.906 217.646 471.742 216.584 470.609 215.522C470.452 215.375 470.444 215.129 470.591 214.972C470.738 214.814 470.984 214.806 471.142 214.954C472.27 216.01 473.428 217.067 474.586 218.094C474.747 218.237 474.761 218.483 474.619 218.644C474.543 218.733 474.435 218.776 474.328 218.776ZM467.51 212.387C467.411 212.387 467.312 212.349 467.236 212.273C466.125 211.172 465.021 210.048 463.955 208.932C463.807 208.777 463.812 208.53 463.968 208.381C464.124 208.233 464.37 208.238 464.519 208.394C465.579 209.504 466.678 210.624 467.784 211.72C467.937 211.872 467.938 212.118 467.787 212.271C467.711 212.348 467.611 212.387 467.51 212.387ZM461.058 205.628C460.952 205.628 460.846 205.585 460.769 205.499C459.724 204.34 458.685 203.156 457.681 201.978C457.542 201.815 457.561 201.569 457.725 201.429C457.888 201.29 458.134 201.309 458.274 201.473C459.273 202.646 460.307 203.824 461.348 204.977C461.492 205.137 461.479 205.383 461.319 205.527C461.244 205.595 461.151 205.628 461.058 205.628ZM454.998 198.516C454.885 198.516 454.772 198.466 454.694 198.37C453.719 197.157 452.749 195.915 451.812 194.678C451.682 194.507 451.715 194.263 451.887 194.133C452.057 194.002 452.302 194.037 452.432 194.208C453.365 195.439 454.33 196.675 455.301 197.882C455.436 198.05 455.409 198.295 455.242 198.43C455.17 198.488 455.084 198.516 454.998 198.516ZM97.8212 193.141C97.6498 193.141 97.4931 193.027 97.4457 192.855C97.0344 191.353 96.6647 189.816 96.3482 188.284C96.3052 188.073 96.4401 187.867 96.6508 187.824C96.8608 187.78 97.0679 187.916 97.111 188.127C97.4245 189.642 97.7891 191.163 98.1975 192.649C98.2543 192.857 98.1318 193.07 97.9248 193.127C97.8897 193.136 97.8547 193.141 97.8212 193.141ZM449.354 191.068C449.232 191.068 449.112 191.011 449.036 190.904C448.136 189.643 447.239 188.347 446.371 187.052C446.251 186.874 446.299 186.632 446.478 186.512C446.656 186.392 446.898 186.44 447.018 186.619C447.882 187.907 448.775 189.196 449.671 190.452C449.795 190.627 449.755 190.871 449.58 190.996C449.511 191.044 449.432 191.068 449.354 191.068ZM95.9304 183.988C95.7393 183.988 95.5723 183.847 95.5453 183.653C95.3273 182.098 95.1603 180.525 95.0473 178.979C95.0313 178.764 95.1924 178.578 95.4068 178.562C95.6292 178.548 95.8079 178.707 95.8239 178.922C95.9355 180.451 96.1017 182.007 96.3168 183.545C96.3467 183.758 96.198 183.954 95.9851 183.984C95.9661 183.987 95.9479 183.988 95.9304 183.988ZM444.148 183.307C444.019 183.307 443.892 183.243 443.818 183.125C442.986 181.802 442.166 180.456 441.381 179.124C441.272 178.939 441.334 178.699 441.519 178.591C441.703 178.481 441.943 178.543 442.052 178.729C442.834 180.054 443.65 181.393 444.478 182.71C444.593 182.892 444.538 183.132 444.356 183.246C444.291 183.287 444.219 183.307 444.148 183.307ZM439.401 175.257C439.264 175.257 439.131 175.184 439.06 175.055C438.306 173.687 437.566 172.296 436.859 170.92C436.76 170.729 436.836 170.494 437.027 170.396C437.218 170.297 437.453 170.373 437.551 170.564C438.255 171.934 438.992 173.318 439.743 174.68C439.846 174.868 439.778 175.105 439.589 175.209C439.53 175.24 439.465 175.257 439.401 175.257ZM95.2559 174.669C95.0415 174.669 94.8672 174.497 94.8665 174.282L94.8657 174.053C94.8657 172.558 94.9175 171.054 95.0189 169.583C95.0334 169.368 95.2259 169.208 95.4345 169.221C95.6489 169.236 95.8108 169.422 95.7962 169.637C95.6956 171.09 95.6445 172.576 95.6445 174.054L95.6452 174.279C95.6467 174.494 95.4732 174.669 95.258 174.671C95.2566 174.669 95.2566 174.669 95.2559 174.669ZM435.128 166.944C434.983 166.944 434.843 166.863 434.777 166.723C434.104 165.315 433.444 163.884 432.817 162.467C432.731 162.27 432.819 162.041 433.016 161.953C433.213 161.865 433.442 161.955 433.53 162.152C434.155 163.561 434.811 164.986 435.48 166.387C435.573 166.581 435.491 166.814 435.297 166.906C435.242 166.932 435.185 166.944 435.128 166.944ZM95.9048 165.352C95.8859 165.352 95.8677 165.351 95.848 165.349C95.635 165.317 95.4877 165.12 95.5191 164.907C95.7452 163.352 96.0339 161.796 96.3774 160.282C96.4255 160.073 96.6326 159.94 96.8433 159.989C97.0533 160.036 97.1846 160.245 97.1372 160.455C96.7981 161.949 96.5137 163.484 96.2899 165.019C96.2622 165.212 96.0959 165.352 95.9048 165.352ZM431.341 158.398C431.188 158.398 431.043 158.307 430.981 158.156C430.391 156.712 429.814 155.245 429.27 153.794C429.195 153.593 429.296 153.368 429.497 153.292C429.697 153.217 429.922 153.318 429.999 153.52C430.541 154.963 431.114 156.423 431.702 157.861C431.784 158.06 431.689 158.287 431.489 158.368C431.441 158.389 431.391 158.398 431.341 158.398ZM97.9707 156.246C97.932 156.246 97.8934 156.24 97.854 156.228C97.6491 156.164 97.5346 155.945 97.5988 155.74C98.064 154.25 98.5971 152.759 99.1819 151.31C99.2628 151.11 99.4918 151.014 99.6887 151.095C99.8885 151.175 99.9848 151.403 99.9045 151.602C99.3277 153.031 98.802 154.502 98.3419 155.972C98.2901 156.139 98.137 156.246 97.9707 156.246ZM428.052 149.648C427.89 149.648 427.739 149.547 427.684 149.385C427.178 147.914 426.688 146.416 426.225 144.932C426.161 144.726 426.276 144.508 426.481 144.444C426.688 144.38 426.905 144.495 426.969 144.7C427.429 146.177 427.917 147.668 428.42 149.132C428.49 149.335 428.382 149.557 428.179 149.627C428.137 149.642 428.094 149.648 428.052 149.648ZM101.465 147.588C101.407 147.588 101.347 147.575 101.292 147.546C101.099 147.45 101.021 147.216 101.117 147.024C101.814 145.631 102.579 144.246 103.388 142.905C103.499 142.722 103.737 142.662 103.922 142.773C104.106 142.885 104.165 143.124 104.054 143.308C103.255 144.631 102.501 145.998 101.813 147.372C101.745 147.509 101.608 147.588 101.465 147.588ZM425.27 140.723C425.1 140.723 424.943 140.61 424.895 140.438C424.475 138.937 424.072 137.413 423.696 135.908C423.645 135.699 423.772 135.488 423.98 135.436C424.19 135.383 424.4 135.511 424.453 135.72C424.826 137.218 425.227 138.735 425.646 140.228C425.704 140.435 425.583 140.65 425.376 140.708C425.341 140.718 425.305 140.723 425.27 140.723ZM106.287 139.592C106.209 139.592 106.131 139.569 106.062 139.52C105.887 139.395 105.846 139.152 105.971 138.977C106.868 137.717 107.833 136.464 108.838 135.252C108.975 135.086 109.221 135.063 109.386 135.201C109.552 135.338 109.575 135.584 109.437 135.749C108.445 136.947 107.493 138.185 106.605 139.429C106.529 139.535 106.409 139.592 106.287 139.592ZM112.282 132.461C112.181 132.461 112.08 132.421 112.004 132.343C111.853 132.19 111.856 131.943 112.01 131.792C113.105 130.724 114.293 129.679 115.541 128.689C115.71 128.555 115.954 128.583 116.089 128.752C116.223 128.92 116.194 129.165 116.026 129.299C114.798 130.273 113.63 131.3 112.554 132.349C112.478 132.424 112.38 132.461 112.282 132.461ZM423.011 131.651C422.832 131.651 422.67 131.527 422.631 131.344C422.299 129.828 421.986 128.284 421.698 126.751C421.659 126.54 421.798 126.336 422.01 126.296C422.226 126.257 422.425 126.396 422.465 126.608C422.751 128.133 423.063 129.67 423.392 131.178C423.438 131.388 423.306 131.596 423.096 131.642C423.066 131.648 423.038 131.651 423.011 131.651ZM119.567 126.654C119.44 126.654 119.316 126.592 119.241 126.478C119.123 126.298 119.173 126.056 119.352 125.938C120.618 125.106 121.972 124.29 123.376 123.512C123.563 123.408 123.801 123.475 123.905 123.664C124.009 123.853 123.941 124.09 123.753 124.194C122.366 124.962 121.028 125.768 119.78 126.589C119.715 126.633 119.641 126.654 119.567 126.654ZM421.289 122.46C421.1 122.46 420.934 122.323 420.904 122.131C420.663 120.588 420.443 119.025 420.252 117.488C420.226 117.275 420.377 117.08 420.591 117.054C420.801 117.027 420.998 117.178 421.025 117.392C421.216 118.922 421.434 120.475 421.674 122.01C421.707 122.223 421.562 122.422 421.35 122.455C421.329 122.459 421.308 122.46 421.289 122.46ZM127.723 122.114C127.577 122.114 127.437 122.032 127.371 121.892C127.278 121.697 127.361 121.465 127.555 121.373C128.914 120.728 130.358 120.089 131.847 119.475C132.047 119.393 132.275 119.487 132.356 119.686C132.438 119.885 132.344 120.113 132.145 120.195C130.668 120.804 129.236 121.437 127.889 122.076C127.835 122.102 127.778 122.114 127.723 122.114ZM136.355 118.533C136.196 118.533 136.048 118.435 135.989 118.277C135.916 118.075 136.02 117.851 136.222 117.778C137.63 117.264 139.121 116.749 140.654 116.247C140.861 116.18 141.078 116.292 141.146 116.496C141.213 116.7 141.101 116.92 140.897 116.987C139.371 117.487 137.889 117.999 136.489 118.509C136.445 118.526 136.4 118.533 136.355 118.533ZM145.238 115.612C145.07 115.612 144.916 115.503 144.865 115.334C144.803 115.128 144.921 114.911 145.127 114.849C146.556 114.422 148.028 113.998 149.628 113.553C149.838 113.495 150.05 113.617 150.108 113.824C150.166 114.031 150.044 114.246 149.837 114.303C148.241 114.747 146.773 115.169 145.349 115.595C145.312 115.607 145.275 115.612 145.238 115.612ZM420.135 113.18C419.936 113.18 419.766 113.029 419.748 112.827C419.604 111.259 419.487 109.684 419.4 108.15C419.388 107.935 419.552 107.751 419.767 107.739C419.981 107.728 420.166 107.89 420.177 108.105C420.264 109.632 420.381 111.196 420.524 112.756C420.543 112.97 420.386 113.16 420.171 113.18C420.159 113.18 420.147 113.18 420.135 113.18ZM154.249 113.101C154.076 113.101 153.918 112.985 153.872 112.81C153.818 112.602 153.942 112.389 154.15 112.334C155.652 111.94 157.163 111.553 158.684 111.168C158.892 111.115 159.104 111.241 159.157 111.45C159.209 111.658 159.083 111.87 158.875 111.923C157.357 112.307 155.847 112.695 154.349 113.088C154.315 113.097 154.281 113.101 154.249 113.101ZM419.608 103.843C419.396 103.843 419.223 103.674 419.219 103.461C419.204 102.701 419.197 101.955 419.197 101.225C419.197 100.406 419.206 99.5795 419.225 98.7693C419.229 98.5542 419.398 98.3755 419.624 98.3886C419.839 98.3937 420.009 98.5717 420.004 98.7868C419.985 99.5912 419.977 100.412 419.977 101.225C419.977 101.95 419.984 102.691 419.999 103.445C420.003 103.661 419.832 103.838 419.617 103.842C419.613 103.843 419.611 103.843 419.608 103.843ZM419.835 94.4994C419.826 94.4994 419.816 94.4987 419.806 94.498C419.592 94.4819 419.431 94.2952 419.447 94.0808C419.569 92.4247 419.736 90.8524 419.944 89.4069C419.975 89.194 420.171 89.0467 420.384 89.0766C420.597 89.1072 420.745 89.3041 420.715 89.5178C420.51 90.945 420.344 92.4998 420.223 94.1384C420.209 94.3434 420.037 94.4994 419.835 94.4994ZM223.503 86.6627C223.392 86.6627 223.283 86.616 223.205 86.5249C223.066 86.3608 223.087 86.115 223.251 85.9757C224.437 84.9679 225.585 83.9141 226.663 82.8421C226.814 82.6904 227.061 82.6911 227.213 82.8435C227.365 82.9959 227.364 83.2424 227.212 83.3949C226.12 84.4815 224.958 85.5498 223.755 86.5701C223.682 86.6321 223.592 86.6627 223.503 86.6627ZM421.021 85.2297C421.006 85.2297 420.99 85.229 420.975 85.2268C420.761 85.202 420.608 85.008 420.634 84.7943C420.81 83.2898 420.932 81.7321 420.998 80.1649C421.008 79.9498 421.192 79.7842 421.404 79.7923C421.619 79.801 421.786 79.9826 421.776 80.1977C421.709 81.7846 421.585 83.362 421.407 84.8855C421.384 85.0838 421.216 85.2297 421.021 85.2297ZM230.102 80.0854C230.013 80.0854 229.923 80.0548 229.85 79.9928C229.686 79.8535 229.666 79.6078 229.805 79.4437C230.805 78.2681 231.763 77.0378 232.652 75.7886C232.777 75.6136 233.02 75.572 233.196 75.6974C233.371 75.8221 233.411 76.065 233.287 76.2407C232.385 77.5082 231.413 78.756 230.399 79.9491C230.322 80.0388 230.212 80.0854 230.102 80.0854ZM421.421 75.898C421.211 75.898 421.037 75.731 421.031 75.5187C420.99 73.9778 420.893 72.4157 420.746 70.8777C420.726 70.6633 420.882 70.4737 421.096 70.4525C421.321 70.4314 421.501 70.5896 421.521 70.8033C421.67 72.3588 421.767 73.9384 421.81 75.4969C421.816 75.712 421.646 75.8907 421.432 75.8965C421.428 75.898 421.424 75.898 421.421 75.898ZM235.6 72.5404C235.525 72.5404 235.449 72.5193 235.383 72.4733C235.204 72.353 235.158 72.1109 235.278 71.9329L237.891 68.0583C238.011 67.8797 238.254 67.833 238.431 67.9533C238.61 68.0736 238.657 68.3158 238.536 68.4937L235.923 72.369C235.848 72.4806 235.726 72.5404 235.6 72.5404ZM420.53 66.594C420.343 66.594 420.178 66.459 420.147 66.268C419.894 64.7372 419.586 63.2036 419.232 61.7108C419.183 61.5015 419.312 61.2914 419.521 61.2418C419.73 61.193 419.94 61.3221 419.99 61.5306C420.348 63.041 420.66 64.5914 420.915 66.1403C420.95 66.3526 420.807 66.5531 420.594 66.5881C420.573 66.5925 420.551 66.594 420.53 66.594ZM240.83 64.7941C240.755 64.7941 240.679 64.7722 240.612 64.727C240.434 64.606 240.388 64.3638 240.509 64.1859C241.39 62.8863 242.268 61.5992 243.145 60.3244C243.267 60.1472 243.51 60.1027 243.687 60.2245C243.864 60.3463 243.909 60.5891 243.787 60.7664C242.911 62.0397 242.034 63.3261 241.153 64.6242C241.078 64.7343 240.956 64.7941 240.83 64.7941ZM418.371 57.5043C418.205 57.5043 418.052 57.3979 417.999 57.2316C417.535 55.7526 417.012 54.2795 416.446 52.8545C416.367 52.6547 416.465 52.4279 416.664 52.3484C416.864 52.2696 417.091 52.3666 417.17 52.5665C417.742 54.0097 418.271 55.5003 418.742 56.9975C418.806 57.2024 418.693 57.4212 418.488 57.4861C418.449 57.4985 418.41 57.5043 418.371 57.5043ZM246.132 57.0952C246.054 57.0952 245.976 57.0719 245.908 57.0245C245.732 56.9005 245.69 56.6577 245.813 56.4819C246.746 55.1532 247.659 53.8711 248.527 52.6715C248.653 52.4972 248.897 52.4578 249.071 52.584C249.245 52.7101 249.285 52.9537 249.159 53.128C248.292 54.3255 247.382 55.6046 246.45 56.9297C246.375 57.0376 246.254 57.0952 246.132 57.0952ZM251.615 49.5276C251.534 49.5276 251.452 49.5021 251.382 49.4496C251.21 49.3205 251.176 49.0762 251.305 48.9041C252.27 47.6191 253.231 46.3706 254.159 45.1936C254.293 45.0244 254.537 44.9959 254.706 45.1286C254.876 45.2621 254.904 45.5071 254.771 45.6756C253.847 46.8483 252.889 48.0917 251.927 49.3715C251.851 49.4744 251.734 49.5276 251.615 49.5276ZM414.923 48.826C414.778 48.826 414.64 48.7458 414.572 48.6073C413.895 47.218 413.158 45.8419 412.381 44.5161C412.272 44.3308 412.334 44.0916 412.519 43.983C412.705 43.8743 412.944 43.9363 413.052 44.1223C413.84 45.4648 414.587 46.8592 415.273 48.266C415.367 48.4592 415.286 48.6926 415.093 48.7867C415.038 48.8129 414.979 48.826 414.923 48.826ZM257.407 42.1955C257.32 42.1955 257.231 42.1656 257.158 42.1051C256.993 41.9673 256.971 41.7215 257.108 41.5567C258.131 40.333 259.16 39.1399 260.17 38.0102C260.313 37.8498 260.56 37.8367 260.719 37.9796C260.88 38.1233 260.894 38.3691 260.751 38.5295C259.747 39.6526 258.723 40.8391 257.706 42.0562C257.63 42.1481 257.519 42.1955 257.407 42.1955ZM410.2 40.7749C410.076 40.7749 409.955 40.7166 409.879 40.6079C408.998 39.3434 408.056 38.0985 407.081 36.9076C406.944 36.7413 406.969 36.4956 407.135 36.3592C407.301 36.2221 407.547 36.2476 407.684 36.4139C408.672 37.6201 409.626 38.881 410.519 40.1623C410.641 40.3388 410.598 40.5817 410.422 40.7049C410.354 40.7523 410.276 40.7749 410.2 40.7749ZM263.638 35.2354C263.54 35.2354 263.443 35.1989 263.367 35.126C263.213 34.9765 263.208 34.73 263.357 34.5754C264.464 33.429 265.585 32.3168 266.69 31.2689C266.846 31.1208 267.093 31.1274 267.241 31.2835C267.389 31.4395 267.382 31.686 267.226 31.8341C266.129 32.874 265.017 33.9781 263.918 35.1165C263.842 35.1953 263.74 35.2354 263.638 35.2354ZM404.286 33.5559C404.184 33.5559 404.081 33.5158 404.004 33.4355C402.945 32.3285 401.824 31.2419 400.672 30.2078C400.513 30.0641 400.5 29.8176 400.643 29.6579C400.788 29.4982 401.034 29.4851 401.194 29.6288C402.359 30.676 403.494 31.7765 404.567 32.8973C404.716 33.0527 404.711 33.2992 404.555 33.4479C404.48 33.5194 404.383 33.5559 404.286 33.5559ZM270.424 28.8083C270.315 28.8083 270.206 28.7624 270.129 28.6727C269.989 28.5093 270.008 28.2636 270.171 28.1235C271.366 27.096 272.589 26.0998 273.805 25.1634C273.976 25.0322 274.221 25.0635 274.351 25.2342C274.482 25.4048 274.451 25.6491 274.28 25.7804C273.076 26.7088 271.864 27.6955 270.678 28.7143C270.605 28.777 270.515 28.8083 270.424 28.8083ZM397.349 27.3148C397.266 27.3148 397.182 27.2878 397.111 27.2331C395.902 26.2953 394.636 25.3815 393.348 24.5173C393.169 24.397 393.121 24.1556 393.241 23.9769C393.361 23.7983 393.602 23.7501 393.781 23.8705C395.085 24.7448 396.365 25.6688 397.589 26.6176C397.759 26.7496 397.789 26.9939 397.657 27.1638C397.581 27.263 397.465 27.3148 397.349 27.3148ZM277.82 23.1186C277.695 23.1186 277.574 23.0595 277.498 22.9487C277.377 22.7707 277.422 22.5286 277.6 22.4075C278.893 21.5237 280.223 20.6726 281.55 19.8784C281.734 19.7676 281.974 19.8281 282.084 20.0126C282.195 20.1971 282.135 20.4363 281.95 20.5472C280.636 21.3341 279.32 22.1764 278.039 23.0515C277.972 23.096 277.896 23.1186 277.82 23.1186ZM389.605 22.1115C389.538 22.1115 389.471 22.0947 389.409 22.0589C388.094 21.2954 386.719 20.553 385.323 19.8529C385.13 19.7566 385.053 19.5225 385.149 19.33C385.245 19.1382 385.48 19.0602 385.672 19.1565C387.083 19.8638 388.471 20.6135 389.8 21.3851C389.986 21.493 390.049 21.7315 389.941 21.9175C389.869 22.0414 389.739 22.1115 389.605 22.1115ZM285.827 18.3273C285.686 18.3273 285.55 18.2507 285.48 18.1172C285.381 17.9262 285.456 17.6914 285.647 17.5922C287.026 16.8768 288.448 16.1934 289.875 15.5619C290.071 15.4736 290.301 15.5633 290.389 15.7603C290.475 15.9572 290.387 16.1869 290.19 16.2744C288.779 16.9001 287.37 17.5761 286.005 18.2843C285.948 18.3134 285.887 18.3273 285.827 18.3273ZM381.266 17.9218C381.214 17.9218 381.162 17.9116 381.111 17.8897C379.714 17.2852 378.262 16.7032 376.797 16.1592C376.595 16.084 376.493 15.8602 376.568 15.6582C376.643 15.4561 376.868 15.354 377.068 15.4284C378.546 15.9776 380.01 16.5646 381.42 17.1743C381.618 17.2596 381.708 17.4893 381.623 17.6863C381.56 17.8336 381.417 17.9218 381.266 17.9218ZM372.518 14.6671C372.48 14.6671 372.44 14.6612 372.401 14.6488C370.949 14.1887 369.446 13.7497 367.936 13.3442C367.728 13.2888 367.605 13.0751 367.66 12.8672C367.717 12.6594 367.931 12.5362 368.137 12.5923C369.659 13.0007 371.173 13.4426 372.636 13.9064C372.841 13.9714 372.955 14.1901 372.89 14.3951C372.837 14.5606 372.684 14.6671 372.518 14.6671ZM294.354 14.546C294.197 14.546 294.048 14.449 293.989 14.2922C293.914 14.091 294.016 13.8663 294.218 13.7912C295.663 13.2516 297.156 12.7433 298.656 12.2794C298.861 12.216 299.08 12.3312 299.144 12.5369C299.207 12.7425 299.092 12.9606 298.886 13.024C297.401 13.4835 295.921 13.9874 294.49 14.5212C294.445 14.538 294.399 14.546 294.354 14.546ZM363.502 12.243C363.473 12.243 363.445 12.2401 363.417 12.2335C361.93 11.9002 360.396 11.5866 358.856 11.3022C358.645 11.2636 358.505 11.0601 358.544 10.8486C358.583 10.6379 358.782 10.4978 358.998 10.5365C360.547 10.8224 362.092 11.1381 363.587 11.4736C363.797 11.5203 363.929 11.7289 363.882 11.9389C363.841 12.1197 363.681 12.243 363.502 12.243ZM303.266 11.7865C303.091 11.7865 302.932 11.6683 302.889 11.4918C302.836 11.2833 302.963 11.0718 303.172 11.0193C304.664 10.6466 306.202 10.3031 307.747 9.99975C307.957 9.95673 308.163 10.096 308.205 10.3068C308.246 10.5175 308.108 10.7225 307.898 10.764C306.366 11.0652 304.84 11.4051 303.362 11.7748C303.329 11.7828 303.297 11.7865 303.266 11.7865ZM354.32 10.5431C354.301 10.5431 354.282 10.5416 354.263 10.5387C352.758 10.3155 351.204 10.1106 349.645 9.93047C349.431 9.90568 349.278 9.71242 349.303 9.49875C349.328 9.28507 349.527 9.13338 349.734 9.15672C351.301 9.33758 352.863 9.54323 354.377 9.76785C354.589 9.7992 354.736 9.99757 354.705 10.2105C354.677 10.4045 354.511 10.5431 354.32 10.5431ZM312.421 9.98152C312.231 9.98152 312.064 9.84223 312.036 9.64898C312.005 9.43603 312.152 9.2384 312.364 9.20704C313.88 8.98315 315.443 8.78698 317.013 8.62508C317.224 8.6032 317.418 8.75854 317.44 8.97221C317.462 9.18589 317.307 9.37769 317.092 9.39957C315.535 9.56073 313.981 9.75545 312.478 9.97788C312.46 9.98006 312.44 9.98152 312.421 9.98152ZM345.041 9.45937C345.03 9.45937 345.018 9.45864 345.006 9.45791C343.441 9.31716 341.876 9.1961 340.356 9.09838C340.142 9.08452 339.979 8.89929 339.992 8.68488C340.006 8.47048 340.197 8.30566 340.406 8.32098C341.933 8.41943 343.503 8.54122 345.075 8.68196C345.289 8.70093 345.447 8.89054 345.428 9.10494C345.411 9.30695 345.241 9.45937 345.041 9.45937ZM321.705 9.01524C321.501 9.01524 321.33 8.85626 321.316 8.65061C321.303 8.4362 321.466 8.25097 321.68 8.23711C323.209 8.14012 324.783 8.07011 326.36 8.02781C326.556 8.02125 326.753 8.19117 326.759 8.4063C326.765 8.62144 326.595 8.80011 326.38 8.80594C324.813 8.84751 323.248 8.91752 321.73 9.01378C321.722 9.01451 321.714 9.01524 321.705 9.01524ZM335.715 8.86209C335.71 8.86209 335.704 8.86209 335.7 8.86136C334.131 8.80375 332.564 8.76948 331.04 8.75927C330.825 8.75781 330.652 8.58205 330.654 8.36765C330.655 8.15324 330.829 7.98041 331.043 7.98041C331.044 7.98041 331.045 7.98041 331.046 7.98041C332.577 7.99062 334.153 8.02489 335.729 8.08251C335.944 8.09053 336.112 8.27139 336.104 8.48579C336.096 8.69655 335.923 8.86209 335.715 8.86209Z" fill="#444444"/>
<path d="M494.007 128.453L489.093 127.272L489.224 126.726C489.683 124.815 488.373 123.056 486.735 122.662L473.085 119.383C471.173 118.923 469.415 120.234 469.021 121.872L468.89 122.418L463.976 121.237C460.7 120.451 457.587 122.59 456.866 125.593L447.421 164.91C446.634 168.186 448.774 171.3 451.776 172.021L481.807 179.236C485.084 180.023 488.197 177.883 488.918 174.88L498.362 135.564C499.15 132.288 497.283 129.24 494.007 128.453ZM472.091 122.321L486.287 125.732L485.041 130.919L470.844 127.508L472.091 122.321ZM485.915 174.16C485.521 175.798 483.894 176.562 482.529 176.234L452.498 169.018C450.861 168.625 450.096 166.998 450.424 165.632L459.869 126.316C460.263 124.678 461.89 123.914 463.255 124.242L468.169 125.423L467.972 126.242C467.513 128.153 468.823 129.911 470.461 130.305L484.112 133.585C486.023 134.044 487.781 132.734 488.175 131.096L488.372 130.277L493.286 131.457C494.924 131.851 495.688 133.478 495.36 134.843L485.915 174.16Z" fill="#00CFC2"/>
<path d="M484.798 141.546L463.502 136.43C462.683 136.233 462.269 135.555 462.465 134.736L462.531 134.464C462.728 133.645 463.405 133.23 464.224 133.426L485.519 138.543C486.338 138.74 486.753 139.417 486.556 140.236L486.491 140.509C486.294 141.328 485.616 141.743 484.798 141.546Z" fill="#00CFC2"/>
<path d="M486.15 147.936L462.126 142.164C461.307 141.967 460.892 141.29 461.089 140.471L461.155 140.198C461.351 139.379 462.028 138.964 462.848 139.161L486.6 144.867C487.418 145.064 487.833 145.742 487.637 146.561L487.571 146.833C487.374 147.652 486.697 148.067 486.15 147.936Z" fill="#00CFC2"/>
<path d="M475.557 151.167L460.814 147.625C459.995 147.428 459.581 146.75 459.777 145.931L459.843 145.659C460.04 144.84 460.717 144.425 461.536 144.622L476.279 148.164C477.097 148.361 477.512 149.038 477.315 149.857L477.25 150.13C477.053 150.949 476.376 151.364 475.557 151.167Z" fill="#00CFC2"/>
<path d="M467.755 169.218L465.178 163.113L463.967 164.554L456.868 162.849L457.524 160.119L462.984 161.43L466.086 158.133L468.389 164.173L475.938 155.59L476.569 164.983L481.483 166.163L480.827 168.894L473.729 167.189L473.686 162.558L467.755 169.218Z" fill="#00CFC2"/>
<path d="M363.418 25.3021L340.333 31.4958C339.276 30.6666 337.771 30.2371 336.474 30.5849L321.949 34.4821C319.096 35.2479 317.647 38.1387 318.343 40.7327L326.762 72.1197C327.458 74.7137 330.16 76.4917 333.012 75.7259L375.291 64.3829C377.884 63.6872 379.662 60.9852 378.896 58.1323L373.33 37.3803L372.564 34.5266L371.172 29.3386C370.079 26.2954 366.789 24.3971 363.418 25.3021ZM368.321 30.1036L368.529 30.8817C367.941 30.7614 367.093 30.7111 366.315 30.9197L348.418 35.7212C347.9 35.8605 347.052 35.8094 346.654 35.3602L343.554 33.133L364.304 27.5658C365.929 27.409 367.834 28.2885 368.321 30.1036ZM376.045 58.8973C376.323 59.9351 375.564 61.2507 374.526 61.5293L332.248 72.8723C331.211 73.1509 329.895 72.3917 329.617 71.354L321.197 39.967C320.919 38.9292 321.678 37.6136 322.715 37.335L337.24 33.4378C337.759 33.2985 338.607 33.3496 339.005 33.7988L345.135 37.9936C346.45 38.7527 347.956 39.183 349.253 38.8351L367.15 34.0336C368.188 33.7551 369.504 34.5142 369.782 35.552L370.548 38.4056L376.045 58.8973Z" fill="#00CFC2"/>
<path d="M351.448 49.0901L349.917 43.3835L347.064 44.1485L344.211 44.9143L345.742 50.6208L339.776 52.2215L340.611 55.3348L341.377 58.1877L347.342 56.5869L348.943 62.5531L351.795 61.7881L354.649 61.0224L353.048 55.0562L359.014 53.4555L358.249 50.6026L357.414 47.4893L351.448 49.0901Z" fill="#00CFC2"/>
<path opacity="0.5" d="M353.886 278.049L387.374 273.263L380.636 236.711L389.464 273.614C389.464 273.614 395.612 274.002 401.211 278.049C401.211 278.049 393.16 274.55 387.757 275.479L353.886 278.049Z" fill="#9EC7F3"/>
<path d="M382.152 274.009L384.446 257.38L380.636 236.711L378.849 274.481L382.152 274.009Z" fill="#9EC7F3"/>
<path opacity="0.25" d="M322.665 178.866C322.665 178.866 316.589 211.371 315.765 272.783L313.953 272.673C313.953 272.673 315.315 233.62 315.348 230.793C315.38 227.966 317.864 190.414 322.665 178.866Z" fill="#00786E"/>
<path opacity="0.25" d="M313.072 302.641L314.456 302.734L314.212 325.842L312.501 325.989L313.072 302.641Z" fill="#00786E"/>
<path opacity="0.5" d="M284.097 274.269C284.097 274.269 294.539 272.383 303.499 273.473C303.499 273.473 298.366 271.217 284.736 272.501L284.674 273.401L284.097 274.269Z" fill="#9EC7F3"/>
<path d="M312.771 314.959H295.42L299.701 301.743L313.072 302.642L312.771 314.959Z" fill="#9AC9F3"/>
<path d="M96.4347 240.341L106.762 268.342C106.762 268.342 108.621 270.821 106.762 274.746C104.904 278.671 104.365 285.264 109.942 285.884C113.589 286.289 115.11 285.143 116.015 284.012C116.657 283.211 117.798 283.026 118.678 283.556C119.852 284.262 121.627 285.063 123.711 285.131C125.896 285.202 127.823 283.735 128.195 281.58C128.577 279.371 128.061 276.329 123.822 273.809C116.18 269.264 114.612 266.691 114.612 266.691L104.284 237.978C104.284 237.978 103.251 234.673 105.524 230.954C107.796 227.236 105.825 221.362 101.075 220.742C98.2001 220.367 95.4481 222.139 94.9406 223.037C94.7211 223.424 94.1983 223.498 93.9073 223.161C93.2459 222.396 90.8898 220.493 89.0639 220.417C85.9655 220.288 81.7711 221.246 84.2497 226.616C86.7268 231.986 93.6864 232.89 96.4347 240.341Z" stroke="white" stroke-width="2" stroke-miterlimit="10"/>
</g>
<defs>
<clipPath id="clip0">
<rect width="578" height="336.826" fill="white"/>
</clipPath>
</defs>
</svg>
