<svg width="504" height="454" viewBox="0 0 504 454" fill="none" xmlns="http://www.w3.org/2000/svg">
<path opacity="0.5" d="M406.097 256.273H391.773L390.73 259.228C390.73 259.228 401.341 257.692 406.097 257.48V256.273Z" fill="#9EC7F3"/>
<path opacity="0.35" d="M404.064 290.694C404.064 290.694 405.294 345.854 402.401 370.91C402.401 370.91 405.783 324.859 406.098 290.377L404.064 290.694Z" fill="#08233A"/>
<path d="M10.1742 184.188C4.79745 194.027 -0.580016 212.329 8.73439 240.184C11.2535 247.717 18.6754 252.48 26.4558 251.307C39.264 249.377 56.8951 241.58 58.2298 213.472C58.2298 213.472 57.6451 181.262 26.6497 176.073C20.0482 174.968 13.4099 178.267 10.1742 184.188Z" fill="#F5F5F5"/>
<path d="M372.674 371.044C364.583 361.171 355.301 341.933 375.849 317.778C375.849 317.778 402.222 296.829 422.95 314.275C425.725 316.611 427.615 319.859 428.34 323.436C429.687 330.075 429.663 341.425 418.104 351.242C406.29 361.275 400.818 370.026 393.388 374.697C386.634 378.944 377.749 377.236 372.674 371.044Z" fill="#F5F5F5"/>
<path d="M59.9957 277.375C50.2217 283.341 41.4342 290.861 34.5805 300.093C25.0253 312.964 15.7755 331.308 19.4955 351.242C25.1176 381.365 86.8408 383.358 111.511 382.936C130.182 382.617 148.819 384.968 166.748 390.177C182.248 394.679 199.198 401.832 213.166 413.184C249.083 442.376 280.774 454.48 298.38 428.136C315.987 401.793 322.325 315.643 375.849 294.995C429.372 274.348 487.825 292.549 499.093 213.674C503.348 183.892 495.253 159.266 483.528 140.147C459.355 100.731 415.389 77.4348 369.125 79.9029C358.594 80.4649 347.502 82.379 336.41 86.3838C301.491 98.9918 277.426 68.7325 266.358 50.0088C256.654 33.5916 242.068 20.5293 224.458 13.1286C200.972 3.25709 166.403 -1.90268 123.021 18.0329C78.8919 38.3117 68.3808 74.8202 68.5031 105.31C68.5955 128.269 74.9538 150.746 86.1876 170.699C94.2158 184.959 105.158 206.848 104.711 219.524C104.094 236.968 79.7535 265.314 59.9957 277.375Z" fill="#F5F5F5"/>
<path d="M190.652 34.1306H330.779L347.404 55.0409V419.906L324.445 441.516H175.61L155.026 427.91L151.86 382.284V51.7389L168.755 28.191L190.652 34.1306Z" fill="white"/>
<path d="M321.855 27.0183H176.919C160.72 27.0183 147.587 40.2946 147.587 56.6723V418.585C147.587 434.962 160.72 448.239 176.919 448.239H321.854C338.054 448.239 351.186 434.963 351.186 418.585V56.6723C351.187 40.2946 338.054 27.0183 321.855 27.0183ZM340.59 414.069C340.59 425.001 331.824 433.863 321.011 433.863H177.763C166.95 433.863 158.184 425.001 158.184 414.069V61.1876C158.184 50.2559 166.95 41.394 177.763 41.394H215.66C217.895 41.394 219.706 43.2253 219.706 45.4847V52.1466C219.706 56.1725 222.935 59.4361 226.917 59.4361H279.658C283.64 59.4361 286.868 56.1725 286.868 52.1466V45.4847C286.868 43.2257 288.68 41.394 290.915 41.394H321.011C331.824 41.394 340.59 50.2559 340.59 61.1876L340.59 414.069Z" fill="#00A799"/>
<path d="M363.616 352.477C363.616 352.477 368.927 352.585 369.432 346.976C369.936 341.368 368.927 334.124 381.536 334.814C394.144 335.504 386.579 326.072 398.431 327.601C410.283 329.131 402.213 350.968 385.57 350.036C385.57 350.036 377.151 351.055 377.83 360.743C378.509 370.43 374.323 385.266 366.198 386.749L332.405 389.163L345.188 352.408L363.616 352.477Z" fill="white" stroke="#6A6B6D" stroke-width="2" stroke-miterlimit="10"/>
<path d="M318.336 364.994C318.336 364.994 313.293 359.848 305.555 362.907C297.817 365.966 298.069 364.06 292.269 361.062C286.47 358.064 281.426 356.668 280.417 361.062C279.409 365.457 281.93 371.065 289.495 370.81C297.06 370.555 301.642 370.434 302.65 376.297C303.659 382.16 306.502 385.341 311.111 386.871C315.721 388.401 334.163 384.108 334.163 384.108L324.547 369.536L318.336 364.994Z" fill="white" stroke="#6A6B6D" stroke-width="2" stroke-miterlimit="10"/>
<path d="M331.977 385.712C331.977 385.712 331.607 380.243 324.042 376.164C316.477 372.085 315.973 361.123 316.73 352.965C317.486 344.807 326.308 343.278 324.293 333.08C322.277 322.883 326.816 323.648 326.312 314.98C325.808 306.312 324.286 296.37 330.721 295.86C337.155 295.35 340.655 301.978 338.527 308.352C336.399 314.725 338.827 317.653 344.043 321.797C349.259 325.942 346.989 352.455 346.989 352.455L335.693 384.934L331.977 385.712Z" fill="#02DCCA"/>
<path d="M335.933 384.243C335.933 384.243 336.503 376.538 332.777 370.162C329.05 363.787 330.552 355.092 335.964 348.716C341.377 342.341 342.523 336.254 339.943 328.429C337.363 320.604 347.397 322.633 349.403 319.156C351.41 315.678 351.697 306.404 350.836 298.289C349.976 290.174 358.113 282.059 365.942 287.276C373.77 292.492 383.23 302.926 374.057 312.779C364.883 322.633 359.15 320.894 360.87 330.168C362.59 339.442 364.31 340.022 358.003 344.369C351.696 348.716 365.743 353.933 364.31 362.337C363.032 369.833 356.282 373.64 346.703 375.815C343.813 376.471 340.041 378.109 337.147 385.029C336.555 386.446 336.674 383.426 335.933 384.804C335.819 385.016 336.041 384.021 335.933 384.243Z" fill="#00786E"/>
<path d="M335.553 384.182C335.893 382.307 336.313 380.474 336.766 378.639C336.984 377.721 337.235 376.811 337.469 375.898L338.225 373.171C339.263 369.544 340.42 365.954 341.68 362.4C342.936 358.845 344.276 355.32 345.727 351.841C347.14 348.346 348.749 344.933 350.193 341.464C353.092 334.524 355.499 327.376 357.405 320.098C358.357 316.458 359.183 312.784 359.86 309.083C360.529 305.381 361.092 301.654 361.363 297.899C361.124 301.657 360.592 305.39 359.955 309.1C359.309 312.81 358.513 316.493 357.592 320.146C355.745 327.449 353.396 334.629 350.549 341.61C349.128 345.106 347.552 348.523 346.172 352.022C344.754 355.506 343.447 359.034 342.225 362.589C340.999 366.143 339.877 369.732 338.874 373.353L338.144 376.074C337.919 376.986 337.677 377.893 337.468 378.808C337.033 380.632 336.63 382.474 336.313 384.306L335.553 384.182Z" fill="#F4FFEB"/>
<path d="M341.081 364.98C342.235 363.792 343.692 362.943 345.176 362.218C346.674 361.503 348.263 361.005 349.862 360.583L351.075 360.317L352.299 360.113C352.706 360.043 353.114 359.977 353.525 359.938C353.935 359.888 354.347 359.851 354.758 359.816C355.581 359.757 356.406 359.744 357.228 359.71C358.053 359.738 358.875 359.754 359.695 359.806V359.845L357.238 359.912C356.422 359.98 355.603 360.021 354.789 360.112C353.978 360.226 353.16 360.292 352.358 360.457L351.149 360.676L349.953 360.955C348.364 361.345 346.796 361.835 345.296 362.491C344.55 362.827 343.811 363.181 343.108 363.6C342.403 364.011 341.715 364.465 341.107 365.008L341.081 364.98Z" fill="#F4FFEB"/>
<path d="M358.144 317.441C358.366 316.542 358.713 315.681 359.063 314.824C359.251 314.401 359.443 313.979 359.655 313.567C359.857 313.15 360.073 312.74 360.299 312.335C361.197 310.712 362.26 309.185 363.385 307.711L364.284 306.648C364.579 306.29 364.891 305.947 365.21 305.611L366.16 304.595C366.488 304.268 366.826 303.951 367.165 303.635L367.672 303.16L368.199 302.707L369.257 301.808C369.61 301.51 369.997 301.251 370.364 300.972C370.734 300.695 371.109 300.425 371.486 300.159L371.51 300.189C370.805 300.781 370.081 301.351 369.391 301.96L368.371 302.89L367.862 303.357L367.375 303.846L366.401 304.824L365.471 305.843C365.158 306.181 364.853 306.525 364.565 306.884L363.687 307.948C362.549 309.393 361.495 310.904 360.557 312.486C359.627 314.07 358.781 315.715 358.181 317.452L358.144 317.441Z" fill="#F4FFEB"/>
<path d="M348.667 323.275C348.645 324.093 348.625 324.907 348.64 325.722C348.635 326.535 348.642 327.349 348.673 328.161C348.721 329.786 348.776 331.41 348.91 333.03C349.008 334.651 349.157 336.27 349.333 337.887C349.491 339.508 349.713 341.121 349.886 342.75L349.848 342.757C349.539 341.154 349.251 339.546 349.037 337.927C348.803 336.311 348.655 334.683 348.527 333.056C348.42 331.426 348.366 329.793 348.373 328.16C348.385 326.528 348.443 324.894 348.629 323.27L348.667 323.275Z" fill="#F4FFEB"/>
<path d="M342.43 361.066C342.218 360.321 342.095 359.558 341.962 358.795C341.857 358.03 341.77 357.261 341.709 356.491C341.676 356.106 341.644 355.72 341.641 355.333C341.633 354.947 341.611 354.56 341.615 354.173V353.013L341.648 351.854C341.762 350.312 341.885 348.767 342.167 347.246C342.292 346.484 342.467 345.73 342.631 344.976C342.715 344.6 342.831 344.229 342.934 343.858C343.036 343.486 343.147 343.116 343.262 342.748L343.299 342.757C342.968 344.257 342.662 345.764 342.463 347.287C342.238 348.807 342.115 350.339 342.032 351.872C341.946 353.406 341.948 354.943 342.009 356.477C342.076 358.011 342.203 359.546 342.467 361.058L342.43 361.066Z" fill="#F4FFEB"/>
<path d="M305.554 384.108L309.476 404.042H368.593L371.498 384.402L305.554 384.108Z" fill="#00786E"/>
<path d="M311.111 404.042H365.942L355.569 448.238H321.485L311.111 404.042Z" fill="#7DFFF2"/>
<path d="M335.985 383.724C338.866 383.722 341.778 383.457 344.64 383.011C347.501 382.539 350.333 381.853 353.035 380.818C355.728 379.786 358.307 378.372 360.422 376.433C362.482 374.421 363.959 371.876 365.313 369.317C366.661 366.742 367.893 364.099 369.252 361.517C369.927 360.224 370.631 358.945 371.386 357.696C372.135 356.443 372.933 355.218 373.796 354.04C375.499 351.667 377.48 349.494 379.681 347.576C381.904 345.682 384.357 344.062 386.965 342.753C384.371 344.091 381.941 345.736 379.745 347.649C377.571 349.585 375.622 351.771 373.952 354.151C373.106 355.334 372.325 356.562 371.593 357.818C370.854 359.07 370.167 360.352 369.508 361.649C368.182 364.238 366.981 366.892 365.655 369.493C364.992 370.794 364.287 372.078 363.495 373.313C362.701 374.546 361.812 375.732 360.759 376.776C358.592 378.807 355.977 380.271 353.245 381.354C350.506 382.438 347.643 383.164 344.751 383.674C341.851 384.157 338.934 384.457 335.975 384.492L335.985 383.724Z" fill="#6A6B6D"/>
<path d="M375.531 351.909C375.412 351.434 375.358 350.95 375.295 350.465C375.251 349.979 375.227 349.492 375.216 349.003C375.201 348.025 375.292 347.048 375.425 346.075C375.62 345.112 375.85 344.149 376.23 343.236C376.45 342.791 376.64 342.336 376.914 341.923C377.171 341.502 377.491 341.121 377.815 340.76L377.846 340.783C377.283 341.568 376.849 342.434 376.511 343.337C376.192 344.248 375.966 345.187 375.804 346.137C375.645 347.088 375.555 348.05 375.515 349.014C375.479 349.977 375.486 350.944 375.569 351.905L375.531 351.909Z" fill="#6A6B6D"/>
<path d="M358.168 378.524C358.754 378.621 359.334 378.718 359.922 378.756C360.504 378.822 361.088 378.854 361.671 378.864C362.835 378.883 363.998 378.83 365.133 378.616C365.416 378.565 365.705 378.533 365.985 378.466L366.823 378.253C367.104 378.183 367.369 378.066 367.642 377.975L368.051 377.832C368.186 377.781 368.316 377.718 368.449 377.662C368.713 377.545 368.982 377.434 369.245 377.311L370.002 376.878C370.129 376.807 370.264 376.745 370.387 376.666L370.747 376.416C370.987 376.247 371.233 376.084 371.485 375.922L371.511 375.95L370.827 376.515L370.484 376.798C370.367 376.888 370.238 376.962 370.115 377.045L369.37 377.528C369.109 377.668 368.841 377.796 368.578 377.93C367.509 378.438 366.37 378.812 365.197 378.994C364.027 379.184 362.835 379.237 361.652 379.162C360.47 379.081 359.293 378.897 358.156 378.56L358.168 378.524Z" fill="#6A6B6D"/>
<path d="M333.267 384.836C330.876 382.746 328.295 380.819 325.646 379.026C322.994 377.229 320.233 375.59 317.399 374.091C315.991 373.321 314.534 372.649 313.086 371.958C312.357 371.624 311.612 371.325 310.875 371.006L309.768 370.535L308.64 370.114L306.38 369.278L304.081 368.56L302.93 368.203L301.761 367.909L299.422 367.322L301.772 367.863L302.948 368.133L304.107 368.467L306.425 369.141L308.706 369.934L309.845 370.334L310.965 370.784C311.71 371.089 312.464 371.374 313.202 371.695C314.669 372.359 316.145 373.005 317.574 373.75C320.451 375.198 323.259 376.792 325.963 378.546C328.671 380.301 331.289 382.174 333.779 384.264L333.267 384.836Z" fill="#6A6B6D"/>
<path d="M323.88 377.57C323.197 377.381 322.511 377.224 321.818 377.109C321.127 376.982 320.435 376.869 319.737 376.807C318.345 376.66 316.949 376.567 315.55 376.607C314.153 376.621 312.754 376.705 311.364 376.893C309.968 377.045 308.59 377.323 307.19 377.571L307.179 377.534C307.865 377.357 308.543 377.154 309.233 376.999C309.928 376.864 310.615 376.687 311.318 376.6L312.368 376.441L313.425 376.339L313.954 376.288L314.484 376.265C314.838 376.252 315.192 376.227 315.546 376.224C316.962 376.212 318.379 376.307 319.78 376.511C321.179 376.722 322.571 377.026 323.895 377.535L323.88 377.57Z" fill="#6A6B6D"/>
<path d="M87.5982 274.243C87.5982 274.243 87.0247 278.58 87.0393 280.445C87.0509 281.947 87.9167 285.089 90.8943 285.709C92.2133 285.984 93.5419 285.314 94 284.183C94.5051 282.934 94.9728 281.096 94.3658 279.368C94.3658 279.368 94.854 281.549 96.0856 280.828L97.7627 274.226L95.8856 271.039L89.7981 268.77L87.5982 274.243Z" fill="#C36BE0"/>
<path d="M115.158 168.328C115.158 168.328 116.021 165.695 121.525 166.176C127.028 166.657 120.874 160.996 120.874 160.996L116.398 158.712L113.514 164.174L115.158 168.328Z" fill="#9141AF"/>
<path d="M168.193 173.987L147.66 172.221C146.653 172.147 145.69 172.6 145.193 173.381L130.014 197.25C129.117 198.661 130.102 200.43 131.91 200.655L153.312 203.321C154.408 203.457 155.481 202.961 155.981 202.085L170.29 177.316C171.122 175.86 170.026 174.12 168.193 173.987Z" fill="#272183"/>
<path d="M166.034 175.62L148.082 173.995C147.389 173.932 146.72 174.238 146.374 174.774L132.331 196.584C131.708 197.551 132.393 198.77 133.639 198.909L152.58 201.031C153.311 201.113 154.023 200.782 154.362 200.201L167.417 177.895C167.99 176.916 167.27 175.732 166.034 175.62Z" fill="#EFF4F9"/>
<path d="M151.985 203.63C151.985 203.63 151.413 200.485 155.957 193.335C155.957 193.335 157.113 191.741 157.161 193.754C157.209 195.767 156.137 197.701 156.137 197.701C156.137 197.701 158.296 192.375 162.078 193.534C164.925 194.407 163.613 199.133 161.281 201.569C158.949 204.003 157.378 204.212 157.378 204.212L151.985 203.63Z" fill="#C36BE0"/>
<path d="M120.867 353.916C120.867 353.916 118.896 405.276 122.634 443.257C122.634 443.257 118.867 443.149 115.989 447.974C115.989 447.974 112.472 416.187 106.395 396.888C100.319 377.589 102.238 358.006 110.873 347.789L120.867 353.916Z" fill="#C36BE0"/>
<path d="M122.092 437.393C122.092 437.393 122.283 441.482 127.901 442.791L124.997 445.7L119.328 443.935L121.171 439.192L122.092 437.393Z" fill="#C36BE0"/>
<path d="M86.9487 272.307V275.353C86.9487 275.353 90.7022 277.345 96.8459 276.08V271.226L86.9487 272.307Z" fill="#F0F6FF"/>
<path d="M154.269 346.002L134.856 357.186C134.856 357.186 134.856 357.186 129.88 377.899C124.904 398.612 127.203 439.795 127.203 439.795L128.13 440.393L130.434 445.701L145.732 444.731C143.345 443.943 141.261 442.782 139.616 441.668C137.107 439.969 135.791 437.222 136.17 434.441C143.253 382.46 153.062 362.023 154.269 357.186C155.553 352.041 154.269 346.002 154.269 346.002Z" fill="#C36BE0"/>
<path d="M150.125 206.049C150.125 206.049 151.188 204.445 151.978 203.392C151.978 203.392 154.086 203.042 157.378 204.211C157.378 204.211 157.678 206.926 157.554 207.784L151.583 208.301L150.125 206.049Z" fill="#F0F6FF"/>
<path d="M120.323 174.037C120.323 174.037 118.242 168.745 123.345 162.564L103.684 160.16V175.613L120.323 174.037Z" fill="#C36BE0"/>
<path d="M113.514 170.754C113.514 170.754 113.11 166.191 120.568 167.385L124.679 158.712L109.75 160.16L113.514 170.754Z" fill="#9141AF"/>
<path d="M89.3628 210.885L86.9487 272.307C86.9487 272.307 88.2019 274.266 96.1362 273.189L108.327 239.487L94.7834 202.399L89.3628 210.885Z" fill="#9AC9F3"/>
<path d="M146.655 259.585C146.655 259.585 145.168 254.299 144.597 244.984C154.34 232.271 157.554 207.785 157.554 207.785C154.817 203.968 150.125 206.05 150.125 206.05C146.606 210.908 144.442 222.352 144.442 222.352V222.351C144.15 216.138 143.915 210.021 143.811 204.792C143.811 204.792 144.217 193.617 141.374 185.326C141.374 185.326 128.6 169.465 111.834 169.465C111.834 169.465 99.1293 196.504 93.0364 213.445C93.0364 213.445 97.9107 232.549 100.754 241.201C100.754 241.201 86.1311 314.379 100.754 352.95C100.754 352.95 135.281 367.73 159.247 345.74C159.247 345.74 158.435 283.017 146.655 259.585Z" fill="#D6E5F8"/>
<path d="M127.203 140.895C127.203 140.895 121.674 132.758 111.835 135.028C101.995 137.299 97.198 146.291 99.4367 154.141C99.4367 154.141 88.5633 153.76 87.604 163.693C86.6447 173.627 86.6447 179.303 80.2486 181.574C73.8526 183.844 65.8576 193.493 71.2943 202.008C76.731 210.522 85.3657 213.076 85.3657 213.076C85.3657 213.076 97.8381 216.198 104.554 204.278C111.269 192.358 119.585 194.061 119.585 184.979C119.585 175.897 112.482 168.295 115.691 162.322C118.9 156.348 123.346 154.141 123.346 154.141L127.203 140.895Z" fill="#0B205F"/>
<path d="M127.203 140.895C127.203 140.895 118.991 144.325 116.093 155.042C116.093 155.042 110.296 154.613 112.229 159.757C114.161 164.902 127.686 169.189 132.034 166.617C136.381 164.044 136.381 147.754 127.203 140.895Z" fill="#C36BE0"/>
<path d="M130.68 144.474C130.68 144.474 120.215 146.408 116.093 155.042L113.879 149.758L119.979 142.879L130.68 144.474Z" fill="#9141AF"/>
<path d="M109.75 135.639C109.75 135.639 124.64 129.474 131.55 138.742C138.461 148.01 123.026 141.975 117.719 149.21C112.412 156.445 109.75 135.639 109.75 135.639Z" fill="#0B205F"/>
<path d="M114.279 436.151C114.279 436.151 114.367 436.325 114.544 436.625C117.063 440.868 122.669 443.462 128.073 443.462H129.721C134.292 443.462 138.706 445.023 141.959 447.872C141.998 447.906 142.036 447.94 142.074 447.974H112.975C112.974 447.974 111.599 441.965 114.279 436.151Z" fill="#1C1C72"/>
<path d="M127.045 436.151C127.045 436.151 127.133 436.325 127.31 436.625C129.828 440.868 135.434 443.462 140.839 443.462H142.487C147.058 443.462 151.471 445.023 154.725 447.872C154.763 447.906 154.801 447.94 154.84 447.974H125.74C125.74 447.974 124.365 441.965 127.045 436.151Z" fill="#303297"/>
<path d="M146.655 259.585C146.655 259.585 123.422 269.427 124.507 223.801C124.507 223.801 125.207 263.279 144.597 244.984C144.598 244.984 144.614 250.319 146.655 259.585Z" fill="#9EC7F3"/>
<path d="M136.866 347.789C136.866 347.789 127.721 341.129 119.98 308.811C115.471 289.985 100.548 285.908 100.548 285.908C100.548 285.908 113.184 288.871 119.551 300.175C125.918 311.478 126.671 333.333 136.866 347.789Z" fill="#9EC7F3"/>
<path d="M99.0447 236.373C100.049 237.152 101.297 237.672 102.48 238.103C105.712 239.28 109.22 239.645 112.643 239.508C115.578 239.39 118.487 238.895 121.326 238.159C121.225 238.082 121.123 238.005 121.022 237.928C121.022 240.769 121.022 243.61 121.022 246.452C121.022 246.862 121.022 247.272 121.022 247.682C121.081 247.605 121.14 247.528 121.198 247.451C120.079 247.758 118.886 247.871 117.734 247.961C114.477 248.217 111.183 248.03 107.953 247.569C105.242 247.182 102.563 246.592 99.9267 245.853C99.6282 245.769 99.5009 246.232 99.799 246.315C104.067 247.511 108.462 248.321 112.896 248.511C115.316 248.615 117.767 248.55 120.161 248.151C120.551 248.086 120.945 248.019 121.327 247.914C121.429 247.886 121.503 247.788 121.503 247.682C121.503 244.841 121.503 242 121.503 239.159C121.503 238.748 121.503 238.338 121.503 237.928C121.503 237.77 121.35 237.658 121.199 237.697C116.714 238.858 112.001 239.429 107.385 238.798C104.977 238.468 102.548 237.822 100.403 236.658C100.134 236.512 99.8686 236.357 99.6128 236.188C99.5651 236.157 99.2839 235.954 99.3859 236.033C99.1435 235.847 98.8008 236.183 99.0447 236.373Z" fill="#85C2F8"/>
<path d="M124.374 222.441C124.646 228.533 125.349 234.744 126.926 240.653C127.565 243.047 128.669 245.434 130.283 247.327C131.597 248.869 133.368 250.024 135.437 250.139C138.411 250.305 141.255 248.443 143.325 246.497C145.309 244.632 146.678 242.314 147.933 239.931C149.07 237.771 150.086 235.549 151.012 233.291C153.903 226.237 155.893 218.826 157.219 211.329C157.424 210.171 157.612 209.011 157.786 207.848C157.831 207.546 157.368 207.416 157.322 207.721C156.157 215.506 154.319 223.214 151.555 230.594C150.619 233.093 149.576 235.554 148.401 237.951C147.525 239.737 146.603 241.542 145.493 243.198C144.33 244.932 142.854 246.46 141.14 247.659C139.946 248.493 138.628 249.203 137.193 249.515C135.086 249.972 133.05 249.32 131.479 247.88C129.457 246.026 128.154 243.312 127.436 240.695C126.115 235.884 125.454 230.838 125.065 225.877C124.975 224.733 124.906 223.588 124.855 222.442C124.841 222.133 124.36 222.132 124.374 222.441Z" fill="#85C2F8"/>
<path d="M124.882 207.785C124.479 211.241 124.286 214.717 124.281 218.196C124.281 218.504 124.762 218.505 124.762 218.196C124.767 214.717 124.959 211.241 125.363 207.785C125.399 207.479 124.917 207.481 124.882 207.785Z" fill="#85C2F8"/>
<path d="M141.438 185.094C140.161 184.594 138.611 184.599 137.284 184.832C133.793 185.447 131.176 188.109 129.467 191.064C127.651 194.204 126.627 197.763 125.91 201.296C125.849 201.597 126.312 201.726 126.374 201.423C127.02 198.237 127.914 195.048 129.42 192.15C130.381 190.299 131.611 188.548 133.246 187.228C135.125 185.71 137.542 184.923 139.955 185.241C140.409 185.301 140.882 185.389 141.311 185.557C141.599 185.67 141.724 185.206 141.438 185.094Z" fill="#85C2F8"/>
<path d="M386.245 434.173C386.245 434.173 383.137 439.225 375.501 443.309C368.11 447.262 387.238 448.393 387.238 448.393L397.558 432.02L395.128 421.893L386.245 434.173Z" fill="#1C1C72"/>
<path d="M386.423 437.074C386.423 437.074 382.706 444.514 381.367 447.719C380.028 450.923 400.848 449.441 400.848 449.441C400.848 449.441 404.381 450.108 401.971 445.836C399.561 441.563 397.801 437.075 397.801 437.075H386.423V437.074Z" fill="#303297"/>
<path d="M302.722 158.465C302.722 158.465 293.346 152.676 296.566 150.662C298.173 149.656 300.046 153.802 306.165 156.558C307.438 157.131 309.698 157.337 310.215 158.631C312.902 165.359 314.974 168.641 314.974 168.641C314.974 168.641 316.503 171.942 309.901 172.412C309.901 172.412 308.889 172.372 306.605 171.197C304.319 170.021 300.783 168.845 300.783 168.845C300.783 168.845 299.132 166.964 301.254 165.789C301.254 165.789 299.947 163.404 302.305 162.219C302.305 162.218 300.913 160.598 302.722 158.465Z" fill="#C36BE0"/>
<path d="M363.01 234.984C363.01 234.984 341.379 286.955 339.595 328.115C339.595 328.115 340.487 335.914 344.501 343.713C348.515 351.511 386.423 425.599 386.423 425.599V384.873C386.423 384.873 369.922 338.947 360.11 330.931L381.001 292.43L376.464 236.263C376.464 236.264 371.483 236.717 363.01 234.984Z" fill="#08233A"/>
<path d="M374.382 236.263C374.382 236.263 404.462 233.867 415.22 229.388C415.22 229.388 409.841 335.297 405.742 372.623C401.644 409.95 397.801 437.074 397.801 437.074H386.423C386.423 437.074 375.552 260.656 374.382 236.263Z" fill="#0A2E50"/>
<path d="M365.834 153.942C365.834 153.942 359.983 149.119 336.949 191.15C336.949 191.15 323.53 174.541 314.973 168.641C314.973 168.641 313.192 171.485 309.901 172.412C309.901 172.412 314.932 191.134 330.193 212.776C330.193 212.776 333.643 217.156 337.298 215.415C338.212 214.98 339.447 214.102 340.786 213.03C346.183 208.71 350.576 203.329 353.823 197.313L360.576 184.799L365.834 153.942Z" fill="#C6DDF7"/>
<path d="M349.961 271.687L354.252 184.799C354.252 184.799 354.59 161.547 368.73 153.958C368.844 153.897 368.981 154.026 368.97 154.152L365.46 198.432L363.009 234.984L349.961 271.687Z" fill="#D6E5F8"/>
<path d="M367.092 154.579L369.416 141.441L381.562 141.775C381.562 141.775 383.612 151.651 385.956 154.254L372.008 161.546C372.009 161.546 364.971 161.004 367.092 154.579Z" fill="#C36BE0"/>
<path d="M382.104 144.126C382.104 144.126 382.276 146.367 384.061 144.691C385.846 143.014 384.576 141.722 390.56 137.172L390.241 128.933L385.386 132.733L382.104 144.126Z" fill="#081647"/>
<path d="M365.913 115.494C382.09 117.241 386.404 124.574 386.404 124.574C387.388 127.357 387.637 130.182 387.328 132.867C389.016 132.148 391.687 131.36 391.77 133.619C391.894 136.992 388.509 139.889 384.427 141.129C381.894 145.18 378.078 147.993 374.181 148.323C365.913 149.021 362.677 147.624 360.88 136.449C359.083 125.273 365.913 115.494 365.913 115.494Z" fill="#C36BE0"/>
<path d="M361.174 120.213L382.295 119.147L386.796 126.496L384.427 130.304C384.427 130.304 385.929 126.417 383.312 123.493C383.312 123.493 381.265 120.89 373.414 121.175C371.047 121.262 363.233 122.978 361.174 120.213Z" fill="#9141AF"/>
<path d="M387.48 134.142C386.457 134.731 384.963 136.126 383.791 137.762C383.295 138.453 382.256 137.997 382.431 137.167C382.56 136.556 382.717 135.871 382.909 135.106C383.362 133.29 383.966 131.511 384.632 129.757C385.554 127.329 386.462 122.299 378.98 120.902C369.003 119.04 368.079 123.653 359.021 118.094C359.021 118.094 357.165 115.682 359.32 113.593C359.32 113.593 357.66 108.792 362.388 108.723C362.388 108.723 363.071 100.361 369.707 107.926C369.707 107.926 373.96 111.999 379.853 111.066C385.746 110.134 392.59 113.477 392.095 120.367C392.095 120.367 399.839 122.673 395.241 129.609C387.596 141.141 384.412 142.228 384.412 142.228" fill="#081647"/>
<path d="M363.01 234.984L360.317 168.516C360.317 168.516 355.485 165.686 366.437 153.563C365.974 154.681 370.087 161.537 373.666 161.782C377.326 162.033 384.369 153.531 386.309 151.582C386.309 151.582 388.551 153.482 389.074 157.241C389.597 161 415.22 229.389 415.22 229.389C415.22 229.389 379.372 240.812 363.01 234.984Z" fill="#00C4B4"/>
<path d="M367.591 151.604C367.591 151.604 367.373 156.148 374.548 160.236C374.548 160.236 384.061 153.999 384.099 150.418C384.099 150.418 388.907 152.06 390.241 156.946C390.241 156.946 387.675 191.942 377.72 201.414C367.765 210.886 364.994 209.59 364.994 209.59L357.091 182.47L365.369 154.476C365.368 154.476 366.655 152.501 367.591 151.604Z" fill="#00C4B4"/>
<path opacity="0.25" d="M364.83 235.54C361.531 189.477 367.845 153.081 367.845 153.081L367.591 151.604L362.287 176.883L361.614 200.539L363.009 234.984L364.83 235.54Z" fill="#00786E"/>
<path d="M362.638 225.804C362.683 227.344 353.506 196.61 352.372 179.831C352.372 179.831 354.178 177.556 357.701 176.169C357.827 176.12 357.786 175.937 357.65 175.94L353.238 176.033C353.238 176.033 353.983 164.083 367.379 151.407C367.465 151.325 367.612 151.475 367.59 151.604C365.054 166.593 361.11 191.261 362.638 225.804Z" fill="#FFF5F6"/>
<path d="M389.989 224.34V290.886C389.989 290.886 415.637 293.73 419.629 281.579C419.629 281.579 415.601 218.498 415.22 206.606V162.656C415.22 162.656 406.523 154.622 386.505 151.582L390.09 156.193L391.742 192.128L389.989 224.34Z" fill="#D6E5F8"/>
<path opacity="0.5" d="M408.301 165.668C408.301 165.668 401.456 169.513 400.315 194.489C399.174 219.464 397.748 253.545 397.748 253.545C397.748 253.545 406.875 267.677 418.569 263.797L415.146 201.177L408.301 165.668Z" fill="#9EC7F3"/>
<path d="M384.083 150.56C384.083 150.56 390.956 150.755 393.251 158.064C396.232 167.56 397.748 174.4 397.748 174.4L392.046 173.678L389.928 160.157L384.083 150.56Z" fill="#9EC7F3"/>
<path d="M392.105 174.06L397.748 179.093L390.292 224.284L392.105 174.06Z" fill="#9EC7F3"/>
<path d="M384.084 150.56C384.008 150.409 384.132 150.242 384.302 150.267C385.397 150.43 390.941 152.7 392.712 158.077C394.885 164.676 397.059 173.651 397.059 173.651H392.298C392.08 173.651 391.963 173.899 392.105 174.059L397.059 179.62C397.059 179.62 391.625 213.515 390.292 224.283C390.269 224.466 389.992 224.45 389.989 224.266L388.908 167.844C388.908 167.844 386.324 155.044 384.084 150.56Z" fill="#FFF5F6"/>
<path d="M402.401 247.696L391.773 256.273H406.097L408.799 255.008L405.562 248.796L402.401 247.696Z" fill="#9141AF"/>
<path d="M442.106 229.388C445.009 226.324 442.106 220.458 442.106 220.458C436.273 194.499 415.22 162.656 415.22 162.656C415.22 162.656 411.998 159.218 407.106 165.982C402.213 172.745 405.977 198.435 412.657 208.99C419.337 219.544 421.407 224.469 421.407 224.469C421.407 224.469 405.789 242.943 402.402 247.696C402.402 247.696 403.849 253.167 408.8 255.008C408.799 255.008 431.568 240.513 442.106 229.388Z" fill="#D6E5F8"/>
<path d="M309.901 172.412C309.901 172.412 312.224 171.1 314.973 168.641C314.973 168.641 316.919 170.013 318.362 171.292C318.362 171.292 314.574 175.132 311.072 176.103L309.901 172.412Z" fill="#F0F6FF"/>
<path opacity="0.25" d="M378.599 217.222L378.294 201.196L377.602 184.799L376.113 202.449L378.599 217.222Z" fill="#00786E"/>
<path d="M402.402 247.696C402.402 247.696 401.279 253.56 408.8 255.008L411.53 253.228C411.53 253.228 406.468 248.951 404.65 244.749L402.402 247.696Z" fill="#F0F6FF"/>
<path opacity="0.5" d="M372.681 167.508C372.681 167.508 373.896 166.366 374.887 166.008C374.887 166.008 375.88 166.215 377.421 167.56C377.421 167.56 376.285 166.257 374.8 165.502C374.8 165.502 373.927 166.089 372.681 167.508Z" fill="#00786E"/>
<path opacity="0.25" d="M374.578 160.278C374.15 160.004 374.578 160.278 374.578 160.278C374.578 160.278 371.186 163.75 368.528 165.115C368.528 165.115 367.807 164.976 365.833 162.578C365.833 162.578 366.393 163.899 368.375 165.687C368.375 165.687 371.807 164.253 374.578 160.278Z" fill="#00786E"/>
<path opacity="0.25" d="M379.185 163.797L376.897 167.187L377.418 173.678C377.418 173.678 377.953 167.633 378.718 166.443C379.484 165.253 380.403 165.65 380.403 165.65L381.951 166.833C381.951 166.833 384.765 165.691 387.694 162.364C387.694 162.364 385.099 164.695 382.295 166.078C382.295 166.078 381.006 165.204 379.405 163.977" fill="#00786E"/>
<path d="M379.405 163.977L374.578 160.278C373.151 162.41 370.975 164.099 370.975 164.099C370.975 164.099 371.316 164.261 372.376 166.443C373.436 168.624 371.693 171.374 370.521 173.271C369.35 175.168 368.008 186.87 367.031 195.121C366.055 203.372 368.209 219.783 368.209 219.783C368.209 219.783 371.881 224.572 374.581 225.951C374.581 225.951 377.551 221.208 378.599 217.222C377.86 212.1 376.891 195.121 377.421 188.292C377.951 181.464 377.452 171.089 377.354 168.529C377.257 165.968 379.405 163.977 379.405 163.977Z" fill="#00786E"/>
<path d="M384.427 141.141C388.509 139.901 391.893 137.005 391.77 133.632C391.723 132.361 390.857 132.054 389.808 132.157C388.124 132.322 386.683 133.412 385.953 134.896C385.309 136.205 384.637 138.221 384.427 141.141Z" fill="#C36BE0"/>
<path d="M368.057 148.192C368.057 148.192 373.648 151.079 382.104 144.126L383.312 148.471C383.312 148.471 373.643 152.704 368.057 148.192Z" fill="#9141AF"/>
<path d="M309.748 159.626C309.748 159.626 307.508 160.399 304.319 160.485C304.319 160.485 302.94 161.172 304.922 162.547C306.905 163.923 310.779 162.118 310.779 162.118C310.779 162.118 308.71 163.206 307.001 163.206C305.292 163.206 304.747 162.89 304.019 162.107C303.181 161.207 303.694 160.357 304.34 160.25C304.34 160.25 306.251 160.539 309.748 159.626Z" fill="#9141AF"/>
<path d="M301.254 165.789L305.755 167.471C305.755 167.471 306.966 168.904 304.822 170.372C304.822 170.372 306.019 169.877 306.232 169.09C306.232 169.09 306.718 168.09 305.988 167.303L301.254 165.789Z" fill="#9141AF"/>
<path d="M302.364 162.219L306.99 163.948C306.99 163.948 308.075 165.334 305.931 166.802C305.931 166.802 307.128 166.307 307.341 165.52C307.341 165.52 307.827 164.52 307.098 163.733L302.364 162.219Z" fill="#9141AF"/>
<path d="M302.697 158.441L307.822 160.283C307.822 160.283 309.565 161.409 307.421 162.647C307.421 162.647 308.736 162.546 308.949 161.882C308.949 161.882 309.435 161.039 308.706 160.374L302.697 158.441Z" fill="#9141AF"/>
<path d="M310.779 162.118C310.779 162.118 306.904 163.923 304.922 162.547C302.94 161.172 304.319 160.485 304.319 160.485C307.508 160.399 309.748 159.626 309.748 159.626L310.779 162.118Z" fill="#C36BE0"/>
<path opacity="0.5" d="M336.949 191.15C336.949 191.15 338.23 192.472 338.995 193.572C338.995 193.572 339.895 185.73 342.251 181.769C342.251 181.769 338.22 188.647 336.949 191.15Z" fill="#9EC7F3"/>
<path opacity="0.35" d="M360.111 330.931C360.111 330.931 358.965 333.484 356.698 335.522C356.698 335.522 366.398 338.781 368.97 343.886C368.97 343.886 363.372 332.894 360.111 330.931Z" fill="#08233A"/>
<path d="M102.862 375.175C102.862 375.175 110.984 367.21 120.369 371.401L120.748 357.568C120.748 357.568 111.744 356.659 106.529 354.917C106.529 354.917 102.697 362.143 102.862 375.175Z" fill="#9141AF"/>
<path d="M148.357 374.94L153.766 358.814C153.766 358.814 155.048 356.137 154.839 352.096V349.303C154.839 349.303 146.511 355.786 134.855 357.186L131.927 369.374C131.927 369.374 134.896 361.769 144.518 363.239C144.518 363.238 151.426 363.838 148.357 374.94Z" fill="#9141AF"/>
<path d="M219.074 227.227C214.67 236.864 218.949 248.278 228.612 252.669L269.306 271.163C278.969 275.555 290.414 271.288 294.818 261.651C299.222 252.014 294.943 240.601 285.279 236.209L244.586 217.715C234.922 213.323 223.478 217.591 219.074 227.227ZM290.748 259.801C287.367 267.2 278.58 270.476 271.16 267.104L254.41 259.492C254.193 257.446 254.134 252.221 257.562 244.719C260.812 237.607 264.462 234.02 265.89 232.299L283.424 240.267C290.844 243.639 294.129 252.402 290.748 259.801Z" fill="#00C4B4"/>
<path d="M277.793 191.218C271.144 182.961 258.998 181.637 250.717 188.268L215.848 216.191C207.568 222.821 206.24 234.934 212.889 243.192C219.538 251.45 231.685 252.773 239.965 246.143L274.834 218.22C283.115 211.589 284.442 199.476 277.793 191.218ZM216.377 240.399C211.272 234.059 212.291 224.759 218.649 219.668L233.002 208.175C234.932 208.901 239.638 211.199 244.814 217.627C249.72 223.721 251.29 228.586 252.189 230.633L237.165 242.664C230.807 247.755 221.482 246.739 216.377 240.399Z" fill="#00C4B4"/>
<path d="M252 296.765C228.894 296.765 210.163 298.697 210.163 301.081C210.163 303.465 228.894 305.398 252 305.398C275.106 305.398 293.838 303.465 293.838 301.081C293.838 298.698 275.106 296.765 252 296.765Z" fill="#F4F4F5"/>
</svg>
